<mxfile host="app.diagrams.net" modified="2023-01-11T13:25:16.337Z" agent="5.0 (Macintosh; Intel Mac OS X 10_15_7) AppleWebKit/537.36 (KHTML, like Gecko) Chrome/107.0.0.0 Safari/537.36" etag="UJpNCU2rNb6J5Kh7brw4" version="20.1.4" type="github">
  <diagram id="thg1WcEVgdunf7VDU8g7" name="Page-1">
    <mxGraphModel dx="1187" dy="678" grid="1" gridSize="10" guides="1" tooltips="1" connect="1" arrows="1" fold="1" page="1" pageScale="1" pageWidth="850" pageHeight="1100" math="0" shadow="0">
      <root>
        <mxCell id="0" />
        <mxCell id="1" parent="0" />
        <mxCell id="Jc0x52swUBUhcR1XFmG_-1" value="" style="rounded=0;whiteSpace=wrap;html=1;" vertex="1" parent="1">
          <mxGeometry x="60" y="140" width="80" height="110" as="geometry" />
        </mxCell>
        <mxCell id="Jc0x52swUBUhcR1XFmG_-2" value="" style="triangle;whiteSpace=wrap;html=1;rotation=-90;" vertex="1" parent="1">
          <mxGeometry x="70" y="70" width="60" height="80" as="geometry" />
        </mxCell>
        <mxCell id="Jc0x52swUBUhcR1XFmG_-3" value="BCH" style="text;html=1;strokeColor=none;fillColor=none;align=center;verticalAlign=middle;whiteSpace=wrap;rounded=0;" vertex="1" parent="1">
          <mxGeometry x="70" y="180" width="60" height="30" as="geometry" />
        </mxCell>
        <mxCell id="Jc0x52swUBUhcR1XFmG_-14" style="edgeStyle=orthogonalEdgeStyle;rounded=0;orthogonalLoop=1;jettySize=auto;html=1;entryX=1;entryY=0.5;entryDx=0;entryDy=0;" edge="1" parent="1" source="Jc0x52swUBUhcR1XFmG_-4" target="Jc0x52swUBUhcR1XFmG_-5">
          <mxGeometry relative="1" as="geometry" />
        </mxCell>
        <mxCell id="Jc0x52swUBUhcR1XFmG_-4" value="Customer" style="shape=umlActor;verticalLabelPosition=bottom;verticalAlign=top;html=1;outlineConnect=0;" vertex="1" parent="1">
          <mxGeometry x="65" y="840" width="70" height="120" as="geometry" />
        </mxCell>
        <mxCell id="Jc0x52swUBUhcR1XFmG_-11" style="edgeStyle=orthogonalEdgeStyle;rounded=0;orthogonalLoop=1;jettySize=auto;html=1;entryX=1;entryY=0.5;entryDx=0;entryDy=0;" edge="1" parent="1" source="Jc0x52swUBUhcR1XFmG_-5" target="Jc0x52swUBUhcR1XFmG_-9">
          <mxGeometry relative="1" as="geometry" />
        </mxCell>
        <mxCell id="Jc0x52swUBUhcR1XFmG_-5" value="" style="shape=process;whiteSpace=wrap;html=1;backgroundOutline=1;rotation=90;" vertex="1" parent="1">
          <mxGeometry x="70" y="740" width="60" height="40" as="geometry" />
        </mxCell>
        <mxCell id="Jc0x52swUBUhcR1XFmG_-8" value="Mobile" style="text;html=1;strokeColor=none;fillColor=none;align=center;verticalAlign=middle;whiteSpace=wrap;rounded=0;" vertex="1" parent="1">
          <mxGeometry x="70" y="740" width="60" height="30" as="geometry" />
        </mxCell>
        <mxCell id="Jc0x52swUBUhcR1XFmG_-12" style="edgeStyle=orthogonalEdgeStyle;rounded=0;orthogonalLoop=1;jettySize=auto;html=1;entryX=0.5;entryY=1;entryDx=0;entryDy=0;" edge="1" parent="1" source="Jc0x52swUBUhcR1XFmG_-9" target="Jc0x52swUBUhcR1XFmG_-1">
          <mxGeometry relative="1" as="geometry" />
        </mxCell>
        <mxCell id="Jc0x52swUBUhcR1XFmG_-9" value="" style="rounded=1;whiteSpace=wrap;html=1;rotation=90;" vertex="1" parent="1">
          <mxGeometry x="40" y="470" width="120" height="60" as="geometry" />
        </mxCell>
        <mxCell id="Jc0x52swUBUhcR1XFmG_-13" value="" style="shape=image;imageAspect=0;aspect=fixed;verticalLabelPosition=bottom;verticalAlign=top;image=data:image/jpeg,/9j/4AAQSkZJRgABAQEASABIAAD/4gIoSUNDX1BST0ZJTEUAAQEAAAIYAAAAAAIQAABtbnRyUkdCIFhZWiAAAAAAAAAAAAAAAABhY3NwAAAAAAAAAAAAAAAAAAAAAAAAAAAAAAAAAAAAAQAA9tYAAQAAAADTLQAAAAAAAAAAAAAAAAAAAAAAAAAAAAAAAAAAAAAAAAAAAAAAAAAAAAAAAAAAAAAAAAAAAAlkZXNjAAAA8AAAAHRyWFlaAAABZAAAABRnWFlaAAABeAAAABRiWFlaAAABjAAAABRyVFJDAAABoAAAAChnVFJDAAABoAAAAChiVFJDAAABoAAAACh3dHB0AAAByAAAABRjcHJ0AAAB3AAAADxtbHVjAAAAAAAAAAEAAAAMZW5VUwAAAFgAAAAcAHMAUgBHAEIAAAAAAAAAAAAAAAAAAAAAAAAAAAAAAAAAAAAAAAAAAAAAAAAAAAAAAAAAAAAAAAAAAAAAAAAAAAAAAAAAAAAAAAAAAAAAAAAAAAAAAAAAAFhZWiAAAAAAAABvogAAOPUAAAOQWFlaIAAAAAAAAGKZAAC3hQAAGNpYWVogAAAAAAAAJKAAAA+EAAC2z3BhcmEAAAAAAAQAAAACZmYAAPKnAAANWQAAE9AAAApbAAAAAAAAAABYWVogAAAAAAAA9tYAAQAAAADTLW1sdWMAAAAAAAAAAQAAAAxlblVTAAAAIAAAABwARwBvAG8AZwBsAGUAIABJAG4AYwAuACAAMgAwADEANv/bAEMABAMDBAMDBAQDBAUEBAUGCgcGBgYGDQkKCAoPDRAQDw0PDhETGBQREhcSDg8VHBUXGRkbGxsQFB0fHRofGBobGv/bAEMBBAUFBgUGDAcHDBoRDxEaGhoaGhoaGhoaGhoaGhoaGhoaGhoaGhoaGhoaGhoaGhoaGhoaGhoaGhoaGhoaGhoaGv/CABEIBDgCYAMBIgACEQEDEQH/xAAcAAEAAQUBAQAAAAAAAAAAAAAABwECBQYIBAP/xAAbAQEAAgMBAQAAAAAAAAAAAAAAAQIDBAUGB//aAAwDAQACEAMQAAABn8AAAAAAAAAAAAAAAAAAAAAAAAAAAAAAAAAAAAAAAAAAAAAAAAAAAAAAA+J9bYWiCteu/hxX84juT0cNbGnsRAMu2nYhMgAAAAAAAAAAAAAAAAAAAAAAAAAAAAAAAW86ThxhSv027I5PW9v4L7NXrubJjvNmbYdO8EqYeedtM8cV7Fn8v1+wecyVAAAAAAAAAAAAAAAAAAAAAAAAAAAAAAA0Xk7sXjilZUv83p0frPj1ncltSPcVK/ntw4/3HDaxfnSlouS2nH3NP6w5B2La8R1s8/oyYwAAAAAAAAAAAAAAAAAAAAAAAAAAAAAPlx72NGtawPtsVSJq+3yIx+qAYnLI1Yr2fMR9m8RJ8b7v8adeQZx4d7I3PEZwWsAAAAAAAAAAAAAAAAAAAAAAAAAAAAAtuHN0Xdq8p45zn3j/AH3V+j3ivXBFdV2n5zoxvJEbbZfzGtylq2p5eT288Xtz8wAAAAAAAAAAAAAAAAAAAAAAAAAAAAACmGzI4wv6j5LxZpGu1LbNX6TURuqVJ1bB71GeXw8pxlJGoxvT7J/NvSW14qotYAAAAAAAAAAAAAAAAAAAAAAAAAAAAACmgSBQ4X3iQYIwdCUXm9Or9IW3Wsl0bSRpV/O5vzfHJIxfYPEXbG34P7C9wAAAAAAAAAAAAAAAAAAAAAAAAAB4D3V5+0Ctev3Ishk8MXlLWA+PJvW+l1c0btFMlansvYMfqmp7ZrNuX4Nm1XbJ50cdu8RdtbfhcgL3AAAAAAAAAAAAAAAAAAAAAAAAAA8/Kcuc4Un07JldR1/T5fXMpt0ZNF6p5g9GbzPYr4/bNhW3DknwyvCGDdkYa309ruxa3PMxexYL2X4mt9s8l9c7Pjrxe4AAAAAAAAAAAAAAAAAAAAAAAAAHM2mb5oGHe9/s8Owa/q8Pr0iaJbW3KM9vw86vS2/QJPWz5i4WmPOWeteRscyspdp/WGpbbo9+TkMLsej285N0/abuWz52otYAAAAAAAAAAAAAAAAAAAfI+jRtJrE3oXmSX1EyAABH3KndPNNIx+Rjbf8AU996sfkbY7Ec5zWd4y+K+nVfDfaefzuTF7Rzy9P0F4skjVpXU+ro637Q8nmsrbgZ8y+VmP623Z9MAAAAAAAAAAAAAAAAAABZ8OdKpHgXX5lrSGNs6izSea+j/rdaQtIAADyescuR925z7jnAZSKt31vcZP0XUx9yNZj1DQtn553Q5t+mbl4fXtekPX7eRpVh+h4HA/bzZvFY/tDnnpjP5Wt1t17gAAAAAAAAAAAAAAAAAPl9YjI403xdcY6eXcblr0utusAPPiTOtQ+ptbGZAvAAsvELc/dzxRSsRbDFe+63tsxicqxeh0azfF+LicrVTtPN6cbMa9ruZ2TY+dzpvNl+fm0utumwAAAAAAAAAAAAAAAAACLpRoRdKNKgCzCc41TbEMbyhWkb4/qXbYrxjb2585cUbF05oxh5a5s09Pc1ecJ7tkygsW3CAYY7a46xzun21nZtT6cEbwIYrJx5PH8HXUSdEbfzi4ZJpdbcsAAAAAAAAAAAAAAAAAAABbqvp5IrS/bdg6ArXDZ2q9aKVgCVtxFul7sORsT2PA9bSdu/DnSs3kXXubdbi/bMIxbLCkKyJGkl63tgp6gWmB1eya9j5pMGWtuzc5bdaLrbrAAAAAAAAAAAAAAAAAAAHy+kZEI53XOrqY/V9FJpWioESEgAFtwheAO5oCrMVyFF0ia/tMRq+yfadXXpC8nsp3wr2WEzegzx/F2bA/RW583uE3ACwAAAAAAAAAAAAAAAAAAD58g9E8+0r0DulKzjAACASAAAfH7DkvDdSciY9ncvLmNRxetkJ4/Zi9ODN54x3LG5vC9K7v8AL67HnAAAsAAAAAAAAAAAAAAAAAAW3WkAZOOuhKYdpEgAAgEgAAAHN/R+rQ5ezukSTr+u1LeotkuN77FMXptFkaL5y2/mE0jJpC0uALbLgAAAAAAAAAAAAAAAAALbvkcfdc8mdcUw3CYBIAQCQAAC26iFKXw5C9G+xRj6tu0Yn64u/tQx+ujeeoO2ba+XdW+TmPQr6fVer877AiS8Zjc2jC+bcPQrpuSzeNi2V2yHNTT2Lk+F5Ameqax3IN5vCfPCk3c31rNuz8Q9XQ3EXsAAAAAAAAAA+H3+JyR1tyD19TDUXgKyAEAkAAAtutiKXW3IjrmPsLjauWQvhmcRq/RMzreq57JwsD6Z/k3N5jn+RZHWpj/fVIIgtoXLURf8r0zqET9EDiHfugecIv07mONOsrZMz8/os5x0Lr3jXHTs31RPLFpqLWAAAAAAAAAW3WnHPXXL/QtcOxhAAAQCQJAAW3URbfZfEeDijtviaL5Xx+jquuxocu/emTVrRVALAAhSooqKW3oWCF3n9FZcqffofjut+5L9K3XLkpzn0ZDNa6V03y71DC4XsAAAAAAAAApW0gjObNCVMfTwYwmQgAEgSAApW2IpdbdDHcVdf8hzPUm/+L2woqtSl1KpBYAAAAAIiytt0K8p9WczG3zhAE/2zV8/oWnw+4AAAAAAAAAAAPjx/wBiQhWspZmAp9jEAAAEgSAAsutiFxCL4G3qxPSK6lq1CQSAAAAAApWkRZdZfVXkTpLkW09BzNrWyzlqLSAAAAAAAAAAAAxuSHFvVWhxbTH1g+P2moQACQ1o2VCX0JpY7IItK1i7xe2GpmC+k+euxIt96K2oPit9mvUNiWXgAAAAIpaVhbdBUzp/t0XryMmduMlwAAAAAAAAAAAAD568Z7leYcDWuB6C4mmStJ3fO6a1rZWIuPDNoy52yGYq1G3pOAIb101yx1RML3ntPg4/2vQk9IyxpW6oFsxDkE/fERatu54kyHSnH+7w60FoAAABFtmI5zhtcQ/fp+LV3hdkygAAAAAAAAAAAUeaG61lyJIP9tJ9WtzHvfG3IG2qXqcfe0iH+l8fMxr0Jyp5fW8LsBHsgZcV2u7HbVwxt0px+tpd8rzLMYzcK6Tadq5t17zY5+G3ynk/L9vmjqSEI+9Hyu3awXMOxghqDu6NPhyJdPvhiYQk+RJOl6RaoA+Z9GoRUmdIchjKQxO7yzJq+GztKzYVSAFgAAAAAAAAFuufDlKtcxiNnmnibumb3fXy3ZDBmUrbKorFkdyPTZxcy5aftI9Fyr9yhHW+xz+q/pyD88+Lq3UoGzlL5LTZSkLlbsZy397fNde+mN9Grm9elX7htYub8V1Jqvb52kb9H2qdfn9L5zjH5beHt76cRVO1/Dxr8jrLWee81jtvWh7NtmjswbZ1D59LZ5oyU+eW9Ylz+04fYw5ffII1bexds+jiya8+Kann9E3CwAAAAAAACmJyvMla6bs2C6F4O/W+rx/boUmaqXSoJtWggEhClLkx8fn6UxZerWRWqmqbX4M2PnOa9HmLv8znPpDW9l0tqo5O4pWh8cfmKZKa989lpkrgfZk60n4/Ux3CLhIEBEvP6KTWOYp6c8Pa0IX6k5C3b1vD6XUrmsAAAAAAAKGkcmyzrmrMs5rCQT5LtTbr8TZjrae3sBcjacvGWIOgMryx9cWTqinO2z8/YmOmjbXz9r3qU181a/K6ZvUrECqaCQCtnwV9RSshIAUKqJmtKoitAVs80x6mE8ubHstda9SM2+H3wZQWUVlr3OfVfNPp+N1lsUUSv6TmVFpAAAAAAWX/AAONpShif+Ft5OmXeV7VtbmLJauRK2qY8WD2iuXHGWrzffv6/MuP6Qhbvcz7yHA7Lj6st5qknh9SSPr5/Txul9rsd6In1LL60WqngiuWoI7fO6BpSvB6IWHz863rp4vteftd89Wvg27HwvpXb581aXrW7b+ppONnPYK5ObPp0999e3LPy6q+BzFl5twmenjk3VNo4PTu+fmt0933c0S9Cnp+F0dKmIy/oubUWkAAAAABZeOLZV8sf83N0VT5+bw3pfddi/rN/dTw2Hv+XivX+vy+MY7mvIkY6JvXpeHoO4dD7j1dCFdpkNZz1EPceIiOM5U90O6mXqD5c/zR5Tu5L22+Pn9LJ08/px4vlzx0Rzv3uV0ZR8OB1Pp5bPvkzef1XR7sa8gR/FPo9Bxb8XOks9vn8/6Z2R58scXSXt8N6OWbvby/t3F605XRvn+Zu7Uxfp1s3rs+PwPTTB67s45D1SMdb7HMvnqyafQ8j6DJYAAAAAAADEch9pa/WvM8yRLonJ2+o7Of8lyOpOF0D4eaT7oUVbd0dLXNhmmT+vo6NvlzJAAADD5gc1xX3PGERGUr8sZ/h9HoH1YLKeZ9D6ee52gzscefvhT7cbtejXtCjftcTN+KUJ29NyIulr1LzUSAfL6jSY2n6kV5F1rt/wCUOGXa3hhxu7G9suNdm619BAktbDWbWrkgsAAAAAAAAAs1PbxDOMnhWsG56VBgM9cm1FUqKiiooqKKilLhTS905xrWIvfXa9L1+mTTF2vYeVPUc6x8q8+d4bwvsnPjun+c+0+jzfRcXuBUAAAAAAAAAAAWAAAAAAAAAAAAAAAAAChr/HMoxthy5/IUryvtby+qi2tffC7dt/PrsfmcRg9T7utuPewup8iuE3FQAAAAAAAAAAALAAAAAAAAAAAAAAAAAGm7dydVpW3YTZ+f78Nb3b5fbwtXTd40retrwl3l9VNX32i9j8kbV1fifWD4ffJhpdbcgAAAAAAAAAALAAAAAAAAAAAAAAAAABaR9yrIep4drP8A3OR9rBnY7JW209L3T5/bJyaDD6H5abu/lz+Y2LpDiCYel8s6GW3WgAAAAAAAAAALAAAAAAAAAAAAAAAAAGGzMXHM+26pu3N9tUaf0YLlbcQ0cxXEZdNBXcHwYfjqOxYzd+d9Vbjz90DveMqFgAAAAAAAAAsAAAAAAAAAAAAAAAAAQfOEK1QRuGn5zne7yldR2Kne9luu2sGy6Tsep5uBsOe1/wBmLs5Sul5OL7Bqnx+ebz/uvzuoLSl0pD8wbvjaiZAAAAAAAAACwAAAAAAAAAAAAAAAABp242nCu2bpEOr2Pbj9j9eLra5m/hgLa/03fPdDR5viLbN+hSepsHhs9Ner9cxruOjPkPd7OntryuV9tt2TXAAAAAAAAAACwAAAAAAAAAAAAAAAAAD5Q3NKHGmF7j+Va8jYntPlasSNL0HTjo5beZOm+PbR7tr3WXN3Hz1vEnUmfh6FbSEyW3AtLgAAAAAAAAAAAAAAAAAAAAAAAAAAAAU5V6p5CrWRZyh6Yedk8/FHa3E94603XTtx3oCwAC24LVwAAAAAAAAAAAAAAAAAAAAAAAAAAAAFDxcT9G8+469N7x5/RzM1nGvZnNOWkmSlzT0t0KVFrAAAAAAAAAAAAAAAAAAAAAAAAAAAAC0uahphMSKpCMmCni9HNNY0yV4u611XrqamVoG/2TXiXsTnT4dDF1m83pzXAAAAAAAAAAAAAAAAAAAAAAAAAAALdPMlznqW44qx9tPTOe1r8bebs2Gb122QuIJG2Y98a/LqnXn0bLS7UyqVQoIYbk7srW8tIQ6U4ukPex9Kvhfkv9PlEMIVdWeTkP61p2lleFpRmemXi9t7AAAAAAAAAAAAAAAAAAAAADwGA5PyG94aeif/AAZHSy1qYFPhfztmafir+qdjH59uXauYACgAhq3KvaekZaQ3kov8G7jyU8bLvGnkxfr9TFOnc5dfYPJHPfUXE3RW9SVK0rksAAAAAAAAAAAAAAAAAAABSA5u4vrXLS1k4D1p2HqyJ5Z17XW1irHOsRjiOs9ynr2OtNW9RFgAAAgEtW5e7KwWSnMfUXHuUzV7FYTN6uUIQToHSPH+5i7pv13YtuQAAAAAAAAAAAAAAAAAAAIs56kX44ab/wA9yLdinob00aOXCchSHoW7il+c/J68GWorZTVYutSfHg91Lq1tlUQHzpH0admrsvS28hvnntHjLaptfWHHErVT5j/fr2vfmTH4fed7BLEt8/dA5rVFpAAAAAAAAAAAAAAAAAAFhyJKsKdB6kQXMUFdFRMjazsvP+raHvrtU9xfnKXtVjDPj7PimBvvePn9pw2znbUJ9Pcd7x0NbpV8vrgyD5QrzrfGmbH4HTPs0djm/apC1zLXw6Rse4XrsPO/XPO2hs9F6fqeo9bSwW8ZXS8lN06GhKbdlUWsAAAAAAAAAAAAAAAAAAsuHFHRcCzPqxCE5x/bDpPjnrLjHHadpIw+a8j2bcTmGveJZDy7Zx2rmnmwPN3V+rdfT0noHiaa/Q82bOffrFBf0Z89n4HRuHG3KVJi2tVbUjKTtS3cXOX18PSfsuFsXKEr6tE9Fbl8/pt2AAAAAAAAAAAAAAAAAAAA5o881cm4adW8o9OfLWyR3FWYwmfH1t6vF7fBegCLAAAaTzz13qHZ0eeui/tsdZrSleNu0utukEgTTAbBqWXHzXO8DZL3PA+HWGEk7LNwvYAAAAAAAAAAAAAAAAAAAC2FJtthw1M26QrirMPNHv8AjV0dtMMzL43tVGnnAAAoIAAUutuAkAiuUubOnqebrWHJ49fyQyAKhYAAAAAAAAAAAAAAAAAAAAD5RpJ/yrHEXT8KePk5+jnw+vkexcpYn6LbgAABbdbCoKvj9pgfJOq86bBvfsuNNefXdLDQWqBS4WAAAAAAAAAAAAAAAAAAAAAAwvJvZeFrXmCfufsVyNnqPQMptfnOlGsh6XD/AENfp1AG262WUmm5bTy5q7G+els1TT9Q2scsxlGHh7Gj6eo9I2bS2MpCnk0Tdw+7r3X907+hUTagtUCoWAAAAAAAAAAAAAAAAAAAAAAA8nP/AEXgKuM5J0ezUnpXI8mbrxd3fY8kHbazzV5Os/hlrylXqTz5Kc2bJLOp5KZHaIP1usyZHP0mXpYIx6c2H3bNKi6oWApUAAAAAAAAAAAAAAAAAAAAAAAAEVSpzvWuJkzVsl4708Hbh5+sPX+Y4tw3deLmOKvr1h8quUfn17lZcWfXs3kGs7TofTfO3K6XVm3YPO9nnhaoFQsAAAAAAAAAAAAAAAAAAAAAAAAAB8+Rep+R8czlHUpc/eX9BN0w63svqvOVpS61qAApxr1DyLjdFQtOEY+W9DKEo8x9Oeq84FwFQsAAAAAAAAAAAAAAAAAAAAAAAAABE8V/fZOXu7DBsl43Wy9K3nd5oAFsefDmukZzNbVuPnu1dicvThdnmnrCIYz9p5Pt1C0sbuvkQVCwA+Z9Hn+xcAAAAAAAAAAAAAAAAAAAAAB4fdDxAvQkVy55buxX6PrqvR0JKmLiboPq8+aRewHLeK3mE9eenqwXnfM+ilemqbTzt6ur7TjJiIMLN+V7PJj2TdP1vf05+cyeDb1OkdWiDPUyfXVZV2Pm7/PE64LF9LS6VG9rAAAAAAAAAAAAAAAAAAAADWz6ckene9TLt+Wq8P6221Ee1h1LoSJepvaeT9IygPjHskERFgp5Vjj63r6GMWS/M89zN5j1OoemRImy6csX847bW8xo/wDfpb+4NXspk2rzaNp25rZKXNF6J9P5n7DYwgAAAAAAAAAAAAAAFPBDIMPkZfdbcAGFhCqSuZKS5o58BJfh1Hz3fkH4fSFMOS3P5foL1/l/P7DNjrSqyoWoAADROe+voyx2xvvhSXvH+vjbSOj9Y3eTrOc0nA93kSJ9NRzGXBukhxTNdpy1S9gAAAAAAAAAAAAAAHx+0PGpRJ6Zr52xA2TnnB6W1qOweG3b18lrGw5fFlhrc5Ut0N+zy6jGVc2emvV9jxW0fXda6m7/AAtu+xu6lRYKFwWW3C2tRQC24c9ad1bzRr5pC9sPyX5T1+Xp5vToXxOI3CmbV55kTCe/1/lunRu4gAAAAAAAAAAAAAAKcxdPQHVp8twDNPmfS5h47+N1PVTzfKXt82M0Lbx7pF2AkL0PnozkDGzXgp9NB3SFuZ3cn1bGkm+s8eABWlaWXBYABSooCnn9NDljXew4Mw2+Oagf28nvzjjorwGK/wBuk4v6W7vm/qMioAAAAAAAAAAAAAAGNyQ5O1vtDRscwp69r8Ol0MDhpG2mzm2RuhG3ztbg/wCe5aOzlclXz+Q9VhIlz+4es4U7falenyaBUCtK0suCwAAFAAAebXdrEb+nf1Xz+hYBUAAAAAAAAAAAAAAAAAAHn5XlyE8Ft23utfFerpg8pGGfNovXfPnUnsfF3i0gWhWtRYLAAAAAAAKK0AAKgAAAAAAAAAAAAAAAAAAgTXpJg/Q2p0Yz5+Q9h5oK2bL+o83OG723dTkgAAABYAAAAAAABQAFQAAAAAAAAAAAAAAAAAAefk/rjxVccpy8uDLDPWv0y2bBcJsAAAAFgAAAAAAAFAAVAAAAAAAAAAAAAAAAAAAoFQW3AAAAAAAAAAAAAABQAAAAAAAAAAAAH//EADUQAAEEAgADBwMDBAICAwAAAAQBAgMFAAYSExQHEBEgIUBQFSIwMTJgIyQzNBY1F3AlNkH/2gAIAQEAAQUC/wDXzzR48SyEXGkRP/g73tjbdbyyBxewWJiuke9fF2NIljwTZLMNa/tAemV9yHaN/ge4bE6eaKB874KiNuNDgbnSw44CB2SVEa5PXTRZFNIPJR7w9iwERkx/wC2J6Sue50jwh0Hhwsjpovq8uMuchPglzx8UJr4p8JEkGWj2EimlrbOC0H+f230oYv8AKn6YRAhEbqd2SVs8eOY5iwGSw4LYRkZIxsrTQHDrTXM9MTXWENkL89fD9VUJ9roH8yHySQslwqqVM+5igWXq5rZGnBqM/Wb19OXHI2aP51zUc3Ya1ay0qSfOWCwhJYnRPrDsmibNGRAsEuj3fGz57bqT6mE1XRPEJQmLzGiITGqOjfXldRFYi86IQiQMiqPZZA/Orm4670kopDh5IpWys81oL6CTrBMio9tgP08+h2fLm+enhYTDsVFJTFAlqO9ruJPK5vG0qHkTVU/Misx+bAAU4IwWZpI/z1lXw2YtvUzVBdedylT1Ty28P210vKJcnE2dnKl0c7qqn5+6p4bgQ4KauJrDfMRHzYf2OgfzIreLhm0EvlWP8A2agZcCysePLXmdQzynR8smrfxC27f6OsTci7T+A7pr/NZDKsEkMqTR+S3b4T0zvtsm8Qtc/lnMXxb/AAB7GyN2enWpsKsjlv8AJcp6U3+Qz/Wh+2UZeIf5coqIKG0316uk2i1kWHarWBazfvFQzxz4/Js1UlpW/dE8WXnw99x/gp/85foNH/kE/wBX5aR7YmbLfvtyhw5CVbTx+D6dvgQFLBlbZk1c9Fdw3Qvk22v6C4p5fJb/AOvT/wCexfwigRc0yNOBny28WXSV0ESzSLwBQSWc73QWz2uY9k7LEHlZr1o6rsWPR7e/tBF4hq9/LK77lf6NN/kuH/09VF6q7+X32ZX2lOzxluX/AG1ozWwHV7XtDLcLJI1pEL28t+ondbTd+5xcyig9Jk77pcpm/wBOzm5hPZ8F4v8Al9/HVh9TLwTXLPQZOEfLQXky1BHEyzj4Cuzwj7u/af8Aomfvb+3uuHeM4n9vXqvG7Wgfp9R8vttZ9Rq2OWJ8T4zx0TwTDoucOFJyibhmaYV01137nNyaOBOKb/8AO413OMspeXDr1etjatThT4pzkYhu1VoWTdoUSKBvsRE6LxJ+BfXNu15wJAxLh3jkMIZjvVrk4JS4+cCNMo5AJLSxO7tBI4Q69nEX3TP5cQLeaSVLz59DruUL8Sq+GXW4C1uWWwH2jmRySuH1a0ISv0c5xDGoxn4ZoWER7Lq0lW+Ah47xTGEtxRonPX9CoOTPpN81nfudih1pUReMnday8A8X9uELA4okEVoYnxE0zB49j2+Q1YopCZKjRHyYFViAM/LIxsrNk1Bw2Me6J4R6EJ3HidTH98T63eiRY7PepyoU4pZA4Onh7j16oyxcnFotd1Nh8Q5yMbtWyOs5qyrItiKXXhqaL2C5suotJxUfBIAfz07igYyMdUzIramZVFBjG75pOVEKnKjXxe/Vqz6bVfEbzauDCDFkOJpaiKnD8zpWMyW4Aix2zVTcZsdY/IjxpsT8G06w2wj+6GQAzqWecqFxDbGdOLUqn6lYonxO269NcprGrfSPKq+CWe2gVuH7yeTk9iWSv3OzkyYsb242R8eCbDZhLX9oDkyvuwrJvm3TXuHB5lHljfzGeY4jp4WMfPLr1S2or/jrK2GqobvbSrN0A8xctdopU+CabWDZHWhxJ08WODgehGv1pKG6GLLljqdiBjHyDPpt3mHwM6A+LyTRNniuq91bY1E/izyqvghxHUTaPS8+b466u4Kceysp7Qmi1Se1yvqRayP8FrrIVolxrhlQ6styaqaj2Ie5jySVkLU2CsV8cjJW9oIScFa/gK8tmRyogRJDy68JleJ8bcWsNQHY2E1oVqmrdRjWoxv4pY2TM2PT+VkBEwc9DtUJ4t9sBFwT0c/BWXptRLf2cN5rAn+z5F9ELn58+h1Pg341zkY3ZLl1sfqeu/UZWtRifl2rVUmb4uYtbGkhOWQaPZGVJDBXx8ZXks5+VACK44oIRgIvxu5XH0+voKOS7KEFjCH/AD7hrnKWCZYJUf1A8B7mySVMUjhxYxm+S0m5hOhV/NK+NcvC3YrF1pa6zVpW1nsJI2ys2alWoNri+S+zF5sdWZ4+WZ/Kicqufq4PQVHxu1H9BT6uB9Qt/ZX1W22AkY6KQGbnjGRKIULPz4e+2l4YaML6hatajW/G9oJn9XQAuAX2e8VXSl1ZHKmtIeZBUz8E3fbP8SOz8VHmfHblPz73Xhekp/Z7AAllV+sbo3IQN6wTxv44+6x/2uz1v9l8cf8A3l/G1I4/Z/rmyhdBcU0vFFZR8BVY/jF7j/8Aa7Pv+uyUmKBCdtqhsl7QA2o/tEfkvaAc7Hbzarn/ADW2xu82qZHv5zcg7Q0wXdqwjB7AYpPLK9Io3doLUnqrwW3j9w/9td/V2P2S4nd2giZVScBV0z7qZ32d1ozhJ1vZPoaWG6WJmTEzELHFJKsGvWZGQ6PZyYzs+IxvZ7n/AI9jx3Z7kvZ8Tk+l2kGEVZguRyyQOr9zsAsqtuBssRfHvcnE3ZNTlCeGZMARr95Hci+3k/ZSf/Y/ZLid25j86kHdwTWI6kxVorh2ue1iT27W5PO8hwteSc8HQypcD0utGyEIcdPwOa12HaxWnpZaJPCk8EwslHtpNaoB8FjB3KiOTcNcQR1Havqj4Zmzxe2f6sr3cnYvZLid11Fz6r9Fi9YirJkGTkSTurKE20dV6OINkI8Q7fzWNQLaR32skVDqa6npia6whsxe4odhUFoE6vP0ax6mu9vY/wBpfRP5kXsk7i04hZfSSawe6IUOc+Wk0qKDI42RN/L4eSaFhEez0C1BOpXS1pqL4p3doAqRmaFPy7b2+5j8i8oiOpqfaE/68/8Amrq6azKp6aCoG9pbAMsgZonDzauf9QqO7tAHfIJo40j7j2/aEJmiF82s9oa7gEk+6TU6mOvrfbbgOg912eT+MPdJGyZsAkIqe32kHr6bST+ltvaX83Ip4k45hGcsX229u8bfs7/y+7c3ibajvprqtNbYA+wXv3krk1FGP1NqieCe22YrrLns+H4Aveb7WcUWi23BJ7PfDeafoYfNsfbbBYpW1n3TS0QH06s94aKw0YiGaks6azZbA/nTuJnaKOeU40zTa/oqn2rnIxu13f1Q3TKfrzvfbvR9VBrF46oMje2Vn4LC9Bq0I7QYmqL2gQvcIZCdD5N5tuSPS17rKxijSKPvfIyPCLuvFyC8riVReJPzbds3ilcBNZFVVdHVh++e1Ht2qidVGahsnIXz7hsElaj5HSu7tLsXi2mJ3WJ0daJYGyWJelU3Rid+z7Y4GUg8kp691ZsR9W+ku4bkf8bnpG3Zdv48GGlNn13X46Yf3qqiIVe14eS7zVxqbtlPaDlQthl1Xa/RF4k8hZDRRrI+SzMqdcMtnfQqWgFPIYUXp4jiLpO6aVkEez7A63Ia7hdrlzFag9y/pacX1FMjqwiozaqYJM1U14lz+KxtRauK92om1WvrSLIig12Cmi94SZAGyz32GPD9hsLBWxyTOG148jIdOdjNYEjHsq2atm17bZAcGKiLi772F09QuC7LZBClFzmPDCmPn1+kZSh4QRGLFsm0PtHVtbLZT3mv9JHWWU1WTS3w1xD3bdrUjpV+1e/TKeQuw/AUZAHHb70iYUXMbLSamVaLXVY1XD7uaZg8dxvTI8LsCT5Aqco7AtShjyAKAZO8wOI2K1oZq91VdE1ctVtohyNe16YqZeaT1Mv/AA228QdBnetbUC1UeW2zBVbbi/KuJKyomspAAIq+FzUe281t0WDzyiS1G9J4CnDmMyw1quscn7Po8b2ev8QtFBgWGCMdnlVyNw7ZK4DLHfpZMLOIOfWURtq+n00QDEajU93bXA9QPc7AVcSA1ZFg+u1gYXGtRieZzWuSz1eIjCQSq94GwGAYJveQbhWy4zYK12Le1yJNtdVBhe/jsyx2yxsMYyQh9Zqr5MhgjHj7v1yz1yA3DqYoB0BU4rwt3sB0F30OTINnqyMZZByYhES5zWY4mFuPtQo8n2uqgwjfQ2YVvxkmF3Z5ueru+GwKgSPZLSLIN2tIsG7QnYFuFaYscrJm+3u7qGmFsbKe0JpdecbkEEY7PxSxMmaZqos+EaqZFklcZDixyJnC/GiTvwfXzyMF0/BK4YJuOdwthOHIeQQwWIDYhjp8c1HIZroReE6hOzJ6U0dXQyMz1znSeHUS4sr1z1xo8r8gozp8H1Al6j6oHDkdeNE19QC/Foa5cdrdc7JNSDdkum5PqxsWTCzDKDbmVz6feo58ilZMz2h5sdeLb2k1sZr1F1TmtRqfnWJi508WIxrfLsLnNq6uZ0B+xtc+qpWOks/K+GN+OrBH4tJXrn0OvxKYBuMAFZjY2N/HLDHM0/VYZ8Nr5wJKDZJ6iUQqI2D2S5uV51xdHVrZFRsbGz2Hj5yh0LHF1cmM50bXsrqQeuk9wUJEZFcVT6sjS7tQyfZbPZ/TKprXTy1QDa4Nz2xoRsAA+P28ZuLuWJueM3CDItpAfkVsHNjZGP8AjbgFDwkV0MtIb9QrPY76bzT9VD6g61smVgxtmVYyMry5cj10+TG6odi6mdj9asG5JWGRYrHsVhU0SwbAfBg+4SJkG1BS5AZAQndzExHeP4VXwSKeOdv5l9MeVDHjrcJmLfV+JfALjLUOTGSxv89xFyLHQpVdUewXLwjqrfUx+XXm18Fg0asEFTwTPDyvFhlyfXwJsn0+B2EamZFk9aUNjJHxKHspo2B7QJPjHxztWLPVuNl85f8ArakQrSvPxZ4985kAqFbYJFhG1mS5LaGT4r3Ozgc7OnlxR5c4XNxhEseRXJ8WUOwSFz4uceL6JazdQfokKx1HsJP8ZX+1r3/UfiWRMRfHDbMQNtrZjmL3C2BIagbamDmQGNdHnq3GyZ4+Pkm/xa+/l3XkVyJiy56uxGYvgxDdhDDw3aCiMkmklUStJOwbUJnZBqwMeR1AUWNFhbnKbnKZjw4H5NQATZJqQbsrqIauerkTHv8AHGJ67HatCGFHeWRXCNAC9gqelzAotpqhPNr88fL44siYsuersLNGBZYbRNNjnPmfXarZ2OB9n0Lcj0ypjbb6HJHhIk4bxypRX1e1NfjXNlY6LEcrca5F73/sqvtu+5XeGOkxEV2NjTJZY4Gn7XBBhl0WbkAsxT6/RDCEtaMqolDsSAnA7Yx+QFxEpxOTOYuc3ObnNzm5zFzjXuRmWl/AAwgiQybTNeUZvst9q+Ceisvp5jHo9kn6o7Obiy5x544jVyeeEVljtTnZJJKQ+o1EyyWt1qvrETyG1w1hHb6I9mECzCyVt4TXOrrgaya5njn7Va/uf+2s/wC6x78/djY8c5sTbLaYoMLsCDngU5lk6s0KNmCgDAsyaCMhlnooxC2Oun1qskkhcLsxo+QbfC7Ir+tlxhwcmJKO7OZAmOLEZkt7XRYRt8LcN2EwxIYZSpdd03p1/RPZWAMdiJbVc9QVT7DIBgp4pzOVnLzlZy0TCLEMRDttwk2cx9TrZts6p1UKrRPwHVgtiy80uYPEc8d9VtLmva9hDF9MY7JvSGn+65kfiJ441iJlldD1zbG5IsXAVpNjJT6PCOkULIGeVzUch+r1x+G9nzsK1S1FyQAqLOFzc8XZxuz7lyMQiVRdWtCsB7P1yvpg6xvtbSpHtoLnUzKxzHvidDfHwYm1H4/Zz3ZNbmT598rq7V7KwWr0kMPGsbG38ey60KYP+mVtuRWvAs4LSFq+tlLygNfTitckljFitdpdJn9QiSj0h8+CBwAxfjdG12PrRJMdQ1r8TX61MZVBR42FjPdKnih2t1x+T9nwjlXs7xnZ5Hg+iV0WCUwIKfm2gtBKZreJSA3R4KTKJLVXcBybOQkNZq8XNsj7gWubY209i/NSpIBQP4Dvdpzygo+ZLhIXFng6NxBk5SQkSD56yK4ZY4wB+qNhjSGL+AW9gysAImeVOJDyo+6UdkqPCa1WVyZHAyJLD9mosR96n8B3e46ooOHmyd65I/ikG9YMsE/pa1N091/ANjt21Fc5zppBoeVH3yL4R/rkPpFhDOOGN7opaaxZZ1/zyr4JtdutpZAwcbvIU7hgan3N9E7jYOW/V75agqKRszPndttPptUjVe6GNIo/IairAOxXS98kaSMliWJ+q7QoDmPbIz5zcrLrbWvi4neVU8cbG1q+SaFszZYlidpuxLFJ83ZldGBM9ZpRo+XF+QmHnM+6J+t2f1Sr+a3onkU8LeOTw8xhKxqGQ6XyyypE2E3mSHM4Jez4ped812iO/oBes6r4Yi+Pf44vok7+ZJXevd+vcq+GFkc1wMXG+xX7+z9i/VPmu0OLxDEd4Tn+PJHIWF3VReBB3FgT3rKbNwRrlc/1O4uVGQ+JfqWSlPmyGB0zmNbDHPJzZNDr+QF81stf9RqfuY+J7SYZxHxrwuyIWSRf6YTJJHSuh1giWna5WOhnZOyWv8c6CXI67PsgaUXzcpKiW3NGHYLB80ubhrboJI5ViWM9ip1MOS2GPcr11PWmn5wNRuy6k7x8HRuYbIzPqL8WwkXHyulWn10u3lqqmCoH+cc1HtudGjIcXQWIbukI8QdYsjlta91WboMvHXd278tLah1+S9VdAOyHs9nwDSq8RY4mxN/gHLZ3bs3wvez532d1+R1VvoI3LrP4NuzvG87PU+3Jl4YiXcRGqRcqi/g20y8+80GLhAydPGGf7ZtXdx0f8FKmQccqXqSNUG6Wkx36XMPT2eiEc2n/AILu9qgtfWhuPNhibBF3byFyLTQ7Dpz/AOCEkMFhu7N1qfotTwp37ZWfUayCZ4s9PZMtAfm1XD9jrwMk7QA0Ufe66VRTYDY+572xt23ZFsZKOoktzBx2DQ96+qbXSLWG6xfOpy4pWzR/M2dsNVQXG2mWTmMknfDrFpM0umOCwKxJrpdc2iK4Yrkam2bP1Tq2tntCaioiqRfLY18VkLa1U1SVquzrXSMe2Rve57WJNe1w+N2eqdg9iKV8je38FNBYWBFoRRapPaKBTh1rMexsibJqTHsgllDnudwmPDBCmsSKOliphvPcVENuLZVs1WTq20qC6N7ZWKqNS83eIRTbo49yNc9enlTGSyQuo9zIDeMVGZD8be3UVMIabNYkaxqnPVjUY3vkc2NmwzCkWdfXT2RFJRQU0H4bqlhtxjwJq0nW9qkq37RtamYEDPYT1ejjQNgrRR0WCJcP1uvsGXdHPTT6tsD6slrkc34solgkF1ayW5upa71ToTRpX97nIxu1bOpr6ytmtCqengpxvx7DQx3I5gcwE6frrQIYtf5LSuisxDRZACtKt+tA+L3y38XUVU63P260SsF1Rsr7vu8c23ZeYtVVTW5VTTD08H5bikHuYLWoIqSKO/nppwLCCyH8m+VvrrFh9Ptk+KLIaKMcU40vVAWVVPaGusjtIqunD7tu2DoIWMeRNr9MynC/PaVsVoGcHIATT3E9QRWWUNoL33IrTq31ifSldbWfE7yb09TVCKfY7iX0NPXCuNNgiaPDlrYMrAjCpDSNKofZbzV80bNfupKcyCdhEOGyrAJHfmtNtouUfoJPNq/id+K5ljogvNsd7K5tjogXNP7t0uOsNqx2FHwJG2LvuL4Wnjh36TqBS4zIPM5zWNds9W2SGzDIxHIvdaxNlruHxfYASAS6Vd8Dsu5eVVN+5+1j8gzs8f8A1vidrm597oEHCDsk3PutCh4KzLw/6bWqrppJx5RnV94dWurN7hlyEyAiK+3JkGTTylzThECs1vYX1M8MrJ4/I56MbtG0OMciOdiK5iwWxw+D7laQ4XuxJYVQP1VjsNUh4LHvHmpLFLSu3g1IK2mFUyz3rw+p9nif3XxC5cu47XSm8NJa+tlpX/RZvthxz6yB1lkUAObHZ6e+PJoJB3snljQUKY6Wm1mEBDgYrAe0rZawjVtkWukY9r29znIxNp2hS3BBSnz1dNBXDy1AJGTakBLk2k5NqB7M1zXZgZ82YDorHQ7DlzbVafUrPQq7il2spCrrs9H8BviFy19LPTF/+CvYuTcaLLzKhV8EuylNtNOF5QHcbWjHsXSouaBXQV0XdaVkdmOcFKARqezchU9Uc5GptO0dU4MOU+eoqIquDz7mPxhDkSDPEGeaSjIteo5JHTy6yD0FR8TscXIu9Dl46veQuRZ6TaNEPsZeSAq8T6uLkV/4LmnjtICR5A59U2j02naOeoYkh09NTx1cH4Nji5tQieup679Oj3S76qbWapbSzanCnxO+Bcmx0iy6Ww2KpS3AeyQaZu39TTxessH+H8N9SNsopYnwSCjSmTUtNHVQfhuf+qZ++622OAKKKQqfXaRtMF8VstV9WrU5g02tbDHaD7Bq0Vth1KbXOZ6PFXiG/Faa+LZurKYarb+LYpeVU4GAQfJrWrsqW/Gbbq6kZFLKLNWb5wtJ2qpJDd4cevkdVVe23MrhFoK5LS0EAHAj+Ou9QGtMN1KzDX6cX4kiTiZpZ/C722xG9bY6AB8lwJm6VPX1wpDwyADYzxfabDZJXgRxuImpwEra/wCSc1Ht2qkdVHa/crVzxSsmj7kd6/k5rOLuke2Jl7ZrZmaNTc8j5Sxr4bMW5pp6cqkv5Kx4xURcWXgJUclbtkMuRTxzt/A56MS72mOJoZJMhsfjwL+mz33PyprJbY0IOMAb5WxroLQe910mmlrbcislq70azblxrcFgksVjSyi7gdDkO6DuSLZ62XG2wTs68XHWgbcm2auhwrdG4bdFn4IFOdJSa7HWoXYDAtuNqeYggkxxGv0cdML8vOPGTFsGlvGxr3RurNtlHQO0FPZNDGQw7UBp8L1c8bJAiI84XJn3ZwuXIw55cG1mxIwLToY8kPrKaKw3CeXJiJCH1VKVby0tCNTRfM3BCC1oQUlkQVXkBuje+JwW1Gi4LuQsmQ3QE+JLBLjhhH4oYCY+WsHybZ6wdCd1dhd+eZiuVyjizFvp9EcuDCwhxfNb2XyKnUoPR7WvQpqSnkaXbQNnpzxcVrmq2Rzc6ibFmkXPVc4VyCF5EqauRy1TwXXwIhKz5ztBJ4y9bi5VZbFdGDqIPX3WKnjk9aITkup1MuN1CpbjNZq2YypBiwitGlgajg7BPvYczknVE6E1vzmyEdfeCQ8gXays0APlgfgu3NW6F/19hi5dno5fUU/zdiQggNXG421y4n6qxoheiqfPfWbaquj4iCY28Me2j5o1h0tn83vRvT1WqD8RB83TiVMCnWqJwp5rbbgaxby+nu5tdqnulyxFQ0NHSBE6/dxXInzW7n9Vb60Pya3Z5uCv0IXm2vm3C6WsBFGkOnr9eGFxPRO6+peowQwmuIqt8hlwY2AxnnVyNxJWO+PLnQYb77A6CJIYdtf/AFNYvRKQOPtEasgJsNgN5N5mc+61iVkZ/lsaIc/CdcNgxkhlc+u3s0bA91rCcbeVz8dd1zcn22pgwntADZh282JWeFrZLI02vk0/YprFfjd5t0HC1YLjmzZK6cuVuuGvjexY3dnsrnBeTfKqTnNcrFh2Q6JsO2vTBb8MlUciphpXRxBWg5+SQRzIRroM2S6kuSaydHi0R+R64fJkGpOwSkDFxG+CbEjHV+gxcVn8Za2kNUIWTPcH14bQRO5V4UspWznaME4eq8kkbZWFaVVkOd2fgLhPZ56WWun1eVt3MEodjGXH+5LqqfA+q2Rr0ZI17fM+VEzYbFJl0mrUOu+Lt7genHtrgi4I1yp5LO570Y27vufmt63LbzRRtgj/AAOa17dg0tkqQzz1ZIJjSYv3JfUfJUY8gRYNnnbkeyjORL0Vc+sDY65GTJ9jGbhV2SWuu6jMTK1qMT4q92YanjOPItSaXX+HFc1iZLKyKO4u3nP17UJbFRx4xYvx3+uQXMIk81IdBOj2qiKl1r6tUclwrw269aY7Qopsf2fGYzs9Mwbs9gblfrtfW/CSmQQY2zDerXtf5TbMWvZdbzJNkI5NlPU0MQCGGRBRVbprYlXI1L23cbLqeq9RjWo1Py7XryWo9VZuCkimRUw+jGNwrVyosRD69YNqt4MZvNqmB9oMvEAfBZD/AAL3tjbsG5zTyvmkmX1weyLFwfdLSDI+0IrJO0InwL3G0Kz+5PkA1eV6wDRCxlnRixq+e+sB4WDw7JZcqLWKZbc9jEjb+fddf5T6a25Sxy4i+PcreLJawSfH62A/LQH6eXoRzozvgd6tXCiBBvNIEpBBWPrxXpNrgMuP1FvimotxmpjIkOvARZFDEO18qNyz2BkGTlTFvoK3ohiJUjYbO40vWqtKur9hJG2Vm0ay6qkqLjl4x+MlxF79tVvU6GMslt8Aub45VudV4eci+PmdN4YWdEK2wu5SsVFzXKnnvVfBL4vkiajWfULZPZTwsIi2TWJKmQC5mDwSzgLRHKmJM7DD2ixmFuNI0ys6Cr+B7QK93FUG9EVHL6JPnObiztxZ8nJaxDtiamOfMZKJrPSCBBuujo42xRyuy/J5xulVvRVXs5I2ysvNH9ZxCQpIbcuHF2AtUnJlIdrGsSHytRGt+BMEiOHvNWKqniWpAeR7KngmyD47ZB8I2OZ6IhdlJWaKURglPW0UFzaTbNYBBMAg/TDSEghqRXW1vGxI2e1lgjmSfXKsnJNIqX4JqFWLI1qMT4NURyH6lWnrL2eRqv8A47kyLs8iTBdKrB1HDgFaSTEJDfbBPfEU9U2thyZ3pshXhnZ/X+v8EkkbEzZdhluCKCo6RncVKjGzyPNLpAErq3+CbweotXroPVm90j+FuxG8LdNq+vsk/gvaJ45qXhwYq+CFkJFHNK8qfWKv6ZV/wXdwFLq6E5BSGyr4Pk9Lqz6p2oUy2JyfwaSNssex0UtQWPblDITbFFtqqqe3JrK6KsE/g5A0RURuhBzOG7P4GuBrhq2L/wBB/wD/xAA6EQABAwIEAwYEBAYBBQAAAAABAAIDBBEFEiExEEBBExQiMDJRIFBhcUJSgaEGFSORsfDBJDNgYtH/2gAIAQMBAT8B+c3Vx8koMIibGHyi9/7KeooKMhj2j+yH8qrOg/wqrAgBmgP6FPYYnFjxb5Ds4KJ2aNrvoqmgp6k5nt1U2ARn/tOt90yprcLdlk2T4qbGIc7D4v3H3U0UlPIWPG3yHBK4SM7F58Q2+o4FTwMqGFjxdSxy4NUh7PSf9sViMDMRpRUR7j/bfIWPMTg9nRYdXsrI/wD2G6PCsphVwlhWDTmGU0r1itL3aqPsdvkNNUSUkoexUtWKyIPb+v04bhYsw01Y2dvXX+yxxgmpWzDp/gofIcPrDRSj2O6Y8PAc3rwx6PPS5vYplqjCf0/wm87dX+DA6ovYYXHbbhirc1I9YX4sNP6861pcQ1q7vQ4cz/qRmeU2joMRH9Dwu/3oqinkppSx/Ggl7GqY768MS0pJPsqJ4hwpx+6HOYdYVceb3TIu1xSTOL2AssTpe7EVVPpbdYnaspI6po12PFmjx9wm6gLGXBtE762VY/scPjhH4tSunOagrDK6KpHi0fsfqp2CWNzPcKjaZaSen9tRxhbnma36rYLGiZTFB7n9lXziec22GnPNeWHMw2Kw7FRU2ZLo73902ONpOUWusTozSTH8p24YNTGapD+jeFbNmmkn/ILD7n/4hyu58rUFYRiPbDsZTr0UsTJgWPF1/IqW99VDDHTsyMFlM4tjdkCrnhtoWG9tz7nmb8cyzfAx5jcHsNrKknFTCJPfjidZ3OE/XZak89mV01jn+gcMAdeFzfYpuydYLE6o1dST0G3MHycDlYIXMt4hr+irKNtee1pf1H/KwyjNHDlf14YrUd2pT9dAm8ufKp5300gezoqp/dyyvh/FumPEoD29eGOzZ5hF7cw7y8JeKmlkpX/osDmJY6B34VpZVzi+rkP15h3l4ZN2NWx31t/dQWp8Xcz34VvhqpPvwzLMsyzLN8But/Ndv5cbsrgpo6WJza15toFWY5I/ww6fXqnPLzmd5F+JQ5dqlmkltnN7beWOB2TdvMd5Y4W5l2y28rpzh8vfm9Ftylr+deyF3bBMo5HevRMooh9VNSscPDonsMZ8Stb4WsLjomUQ7M3UkRiNitvJt58FKZPE5MibGPCPgfE2QeIKShI9CdDI07LKmxvd6Qo6KR3q0UcDIgs4tuv6cw91JQ9WFOgkZ0VllWVZHO6JlLK9dwd7ruEg6rucw6J7JGdFfy9lSwdp43eTlHtxkGZpCpojkcxypYjELccgPRdlH7Ls2DosoHwlocpaNj/Tojdhy+U1hleGp8zKcBq71M70hZqtd5qG+oJteR6gm1sR30TZWO2PDX4bi/kaBGRg6rtWHqtDxr2AWf5VFYzFdm2+a2q2Wq3RiY7cJ9FE4bWU0Ai/GmVUsXW6irgd9EHhwWTjUOyzR8Q0lZQE97WDUqSuaPRqu2qZvSu5zO9ZXcD7ruB/Mu6zM9JUDZA3x6rJYKukBszyoH9nKEzxLsyuyKyAKSpihU1dJL9AtTwsmTviUFYH9Vo8Ii26rPXH90LlWDd1LOGDU2UlcSfAnFzz4jwjmki2KixFv4wm1VO/qs8J6rPEOqdVQs6qfEC4eBb+URdQ1b4tNwm4kE7Egn10j/StXHX4tlBWFps/VNeJWZlVayx/dOcIgp60D0IkvOZ3w24arXz7BW8nCMHZX0r3yaEnQqenqsKkyv2/Yp84fMH+yc6prAXNBsELfIYITUStibuSqWnZTRCJmwU8Uc0eSQXCw2DD66rezstBssVhZDhsjIxbRN+Q/wANYeWg1T+u3Cqf2cD3+wX8KtvLK9TRCWIs91VQOpJjG/p8go6Y1dQyL3/woYmwsyM24VUHeIXRX3WD4YcNjIcb34YzhPf48zPWE9jonFjxa3P/AMKwXfJN7acayrjo4u0kVHVR1kQlZtwle2Jud+yxsU9bEKynN7aFA89gU/dsNkltfKbqgxmCsiu85T7L+f07qpsEYvfqv4orc7xTs6brCqkU+ECUC+W6p/4jpJG/1DlWKYw7EbU1KDY/uq+FuGYWKc+t5uefwrEO4SHOLsdoR/yn4Vh1V44J7D2KM9DhV+7HO/36D7JzjKS95vdYdicuHOItdh6J0mBVHjILD9EzFcNw8HucdyqmplrJe0kPyGybsn7LotvkRTdk75JugnbIfI2cCtjz26ypzTwbr8BbddeN1fmN1oFdEhAZj8ThfgAtEW35j0ha24eorb43Num3HF+h5bqtzwcthwzAfG5Nvw35Zu6G62CigMgzJzHxnVZimUxIWrTbjqV3Q23XYShNieSMwVUy3iV9FsEOVbutinqIZYwE5ocEImNO3CeHOFqCnOUEOTxOVlrwl1YU3VP5bYpzbrW6Gw+Ganz+JqhpwzxH4X+krUE8xqFuoXZ2Dy6l4az7rpzUEuQrQ+Rvwnkzv+3OQzlnqWko0K7SSL1i/wBU2pjPVZ2nqs7fdGaNvVSVJf4WBQMMQOYqeouMrOeZ2rBnaE2qBHjC7KGTqu6/Vd1P5l2UQ9Tl20bPQE573+rniqa0dKD9Lo+IlZVqtfdNAuFWUzIg3Jz7W5iAq13ZQZPdbD4OoVazNTfZdOeomZ5gfZYi+8oZ7fBqTYKmoSCHydOic0PBaVPCad2XnsNiysL/AHVUyR8x0K68WP7OQP8AZMxCF2+iY9jx4TdStY4eNOw+KQXjcnUE7dtV2Mo/CU2mnd+FR4aT6zZVVP3d4+vLwRGdwaExoaAFPO2BuqJzHN8GijkfEczCqSpbVD2cFPG+nd2kX6hRYhE716ISxO2eFdn5gpKunhGpv9lPMaiQvPLQU8k50TOzprMZqSqicQNupJHSnM/42PMTw9vRQzMq2Zm79QqmgzHPH/ZPhkj9QWnJwUr6jZOw6UbG67nUX9KbQTO+ihwwA+M3U9ZFTjIzX7KkhOsj9z+wVXL28xPtt5MExp5A9qhljq252ItKMETugU7BFMW8lhlpILN3CyEdFkJ6KR8NOP6hVTiT5QWM0CoqXtTneqyTsKYu99PLjkfCczCocXFrShS4pCAezGqLi8l7uvJMe6I5mGyGJ1X5v2TsRqnjdG7j4lTQGd/2TGBoDWrFZg+QRt6fI2MMjwz3UMQhbkanyCnjMh/REl5Lz8jpCGzi67I+6xOpErxGw6D5L3ia2TOf/A//xAA4EQABAwIDBQYEBQQDAQAAAAABAAIDBBESITEFEDJAQRMgIjBQUUJhgZEUFVJxoSMzsdEkQ2Dw/9oACAECAQE/AfWcQWILX0I3Ce8rNy8Sa9Yr+gu0XVAkLH7rJwVywprr+gap4tv0WTwmnCbLX0Byc229uRT8wmOuPQXNunZHe3MJmRXT0F7bhabmarRyGnO3AWR36hPbuZqncSbzjnWWbtFm3VNdvdubqjxpvOOWjQmm+Sbkbb3bmapupTecKc0jcdQhufuZlmmDldFmVhWnec1OZZXTHLJPdluGgQyHK6nysN09qGSxFE33DPmc1YlYVmsRWu9zU7I72i5Q5fRa96yusS1CfvY2w5jXyMKfe6bduqcb7mi5XTlz5TkP0nezmOvlahPyN0+yKZpzA8t+YRzbuZpuus1ms1msXcvfzR5J3OTb2wprFh7l1fdktFruIsunLlAAeb0TfM6+Sd58koI8wd3XynabjyGh8oeVqtF15G+6+7Pdme7fdfvaefkE6QMHiNlLtWFnBmn7WqHcIAVNtOWJ/wDVNwVHIyVuNhuFl3XvDBicbKXax7YFnD/lQzsnZjYVqtVmtO7dYfPrNosp/AzNylqJKg+M37lPUSU5uwqDa8bspRYplRFLwuCxp0sbBdxAU+1YIuDMqoq5ao+I5ey7N4dhIzX/ACKJ/sqfbDDlKLJlVDLwuCuFdYk6RjdSApNo0zPiuvzmK+hX5xT+xTdp0zviTJ45eBwKv5ei2lWmAdmziKzJ7+ixvHVYieu6neGStc7oVXzxCaOVudltGqZUyDBoN2i7WRvxWX4ib9Z+67eY/GfusRPVWHcaSM2qm2pLGcMuYTJGvAc3yppBFGXnoFBRy1xMzjYe6/L6KLjP8rsdm+4+6/AUMnCf5T9jtPA9P2TUN4bFPp5ouNp3WPdwEi9svIDXO0CFPMRwH7LsJh8B+yII137HmJDovK2u8iny6kLtZQ3Biy9lmd2ijqJY+Fyj2pVM1zVJVyVHFHl79FNs+nm6WPyU2y5orlhxJwwmzxYrAtN1E0SUszUN2ElWsmQvmNmC6h2M4/3SuwoKQeK31TtqU0fCEdtN6MQ2039H8obSpJeIfcKsdBJLihCwXC2RAWNMvv5VdAZ4C0arCb2KwlWKwqnpZKg+AZe6p9nRRZv8RVlpunpYqgWeFU0E1MbjNq8LwtCtl/2pP2/2sJKwgKKCapNmBQbIjbnMbpkYZk0W3T0sNRxtzUuyD/1lPop2cTD9EYi3VpXZewP2TKSd/Cw/4VPsqxxTH6Jot5WqqtnxVBxaFO2VUA8QKbsmY8TlDsqCLj8RQbYd611V7MbL448j/BT2OaS14sQtmi0Erv8A7RfIaql2UZDjm+yZGGDCwWHdsFZYVhCw+fl5L5cBU0MVY3NQUZipjEDmeqp6KGl+ZTb39BcU4lxugSDkn42jVMJLxdD0DRTvOm5ubgp9EDY3THBwv6BI7CLpzi47mmxupX490UmAprsufqXnIb2tLinNLTuGZsFFdhwnn5W4ngJ8RaV2JDc1A3JPbikt7owEaJkQZm5Nu99+fkZiCxvHRWL9U99smogSBf1AsD38SYwNFh6BhVk/IlRC5Q0WEehv4ioeq6ehuyCOZuoTY2XT0OV/TcDhN0wi1+ec4IzWTJd0klle+e+N5agct9wsuYc4BPcXKya0uT34AjmbnusfhV8k+U3yWaY8jVN5bouJ3yUuZQBJsEbRBE3N++x5bqnsDkRbdEbjlnmwTMmK6ibhFynHEd2Fx78RyTwHDE1alWseWlOSfwpjcTlU1zKaQMOaY+KpbdpQiDeIp+0omSBrcwnNDxjZ13sZYY3o7ViDyLZJtfSv6qSqgZES0hbLqL3iP0QZ41e7/wBl05WXRO8TFD7qrf2sznJjnMOJpsVLVzSjC526grTC7A/hT25YmpjLDG5V1cZTgZw/532VG/BO3905waom2+vLPF0x2E4SgANE/U/v3aGv7LwSqurzL4Iu7BnM0fMLCHHNAcu5gdqmsDdFWxmKd338vZsRkmxdAhzVfS/iGXHEERY2PkgXNlQ03YRfPrzlZQNn8bMnJjpKOTxj9whTU9X4oThPsn7OqGdL/snQSt1afssD+gP2TKKok+FU+zWw+OU/6VfMypeGRC9vZUGzyw45foEOdkjhm8D1LsotN4ShUV1Pxtuhtb3YvzPFwxlCpq5eCO37r8FNNnO/6BRU8cIsxtlpzp0VS501WQ33smtyVlYLCEbgFUVU+dzmv6c+42Bd7LZze1qTIenddoqB4bVEe9+f2hJggPzyWy2WhL/fuONgqvaIILIvumOLHB41Cpqhk7A5p57akwMgjHRUUsTKduYQO+aPtGFvunbLmbpmpInxHxiygdI147I2K/MpYjhmambRgd1shURHRwTquFmrlLtZo4BdUk/4mPFa3L1E7aeMvKe8veXu6qnpX1DrDRNbYD5d2SNkjbOF1WUXY+Jmip5o6loim16FSbKkHCbhfgpm/Cvwsp+EqLZ0rz4hZQwtiYGjlcgqiqjpx4jn7J/aVt5nmzRoqamNS+3Tqo4mRNwNHfewPFiqumMBuNFS7TwjBN90yaKThcCsuTqauOnHiTNqxHUEL8wpv1J206caEn6KXacj/DEFBQSTHHMq2XtXiFnCFSwCGINHkyxCVpDlU0hiKzaUKiZg8LiqZ5lha88j0W0oXdriWAjosBUVHJKdFBRMhz1Kr6zshgZqf4Wzosct1p5T4w8WIUlB1YUzZxvd6a2w5JzA8ZhGihPRNpIm9FhCq6oUzL9USZX4nalUEOCO/v6HI8RtLj0U0xqHl7lRxdrImgAeh1bC+FzQuzN1R0/Ysz1Pomq7Jl8VgtP/AAX/xABDEAABAwIBBwcJBgYCAwEAAAABAAIDBBEhEiIxMkFRYRATICNCUnEFFDBAUGJygaEkM2CCkbE0Q1OSosFz0RVjcLL/2gAIAQEABj8C/wDn2fMwfmWFRH/csyRp8D+By55yWjajF5LaJHf1DoR56pdbc3BZznH5rasyV4/MurqXEbnYoN8owgjvNV6SYOO7b+BHUNI60TcHkbSsmMXK645RWDAvuwtRdWSCtGUEHwvMbxuTYfKuc3RzgQkgeHsO0fgGom2tYbIuOJdihvPIX6StULrGLB1jxWGhYDJcs7Qha74DrMTZqZ1wdm78AVVtyZfehyZLlmPC1crwWcCFg644q2q9ZLxgrsxYUJIjePtt3pk9O67XfT2/VxjSWLwTHDo9Y26yqc/JZ1wVzcx8CrHEFXbjGUA8k00muP8Aaa+M3a7Ee3iDoU0drMJymeC5l3y6eGD0Wv0rmpfki1yLCvMKh2Ixj/69v87EOvhxHEblcYOage1t6eGuscHBWdrtWW3Xao5osHsN1FURnWGPt811I3qXa47pWU1BzNHT51mnag7ZtXAo20HFSUMhzX4s8fb745QHMcLFYY078WO/0rOxYUCNHSLTtTmrIOlqyhrNUM7NLHXUcrND239vvgqBcO+iMM4w7Lt6EcuosOk2QJu52CI3pzdxXNO1oTb5fgAxSDP7DtyfBUNIe36oRSfLpPYuITHcEH95SQHRIz9vwCXMFqmPFp3oteC17cFkv129KQIcME07iqQ73W/ARr6Vue370DbxQe1B7ei129SBO4KmdukCB3/gEteLtOxOyR1EmLFzbtV3RjKepEw7nKI+4PbDpah4Yxu1FnkyMBvfcsatw8ELVJdwOKDfKUVvfaucpZBI3oyNA61gymLc5qa7oN8UfBSeCZ4hQ/APa5e82a3EpzYifNmYNG/iszRvWe4krq32PFZ4w3oSUr7cNhQkjwkGu3d0ZMnUkzwnsPj0B4p3gn8VAzvPCaNwt7XFPGbPmw+SDAsNVqzM0cFafEK4zmrnI9QqKQHq3Gzwg5ug9CnqbYtdkpnHDoM8VImsG1Uw2NzvbDI9jGJ7tyjZvxWU5oJci+EWcFjqIjSHBFu0KLKOfHmHoT+7imePQjCe75I20NwVRVHQM1vtiGbsvZZFp7Sjfs0KP4eTLZquRidpboTrbcVVQHg4dCs+BNQ5Wt3LLPiuJKp4zruGU72w/mxeWLOasoaWoXxWHI4bRimH5KN6Y06JM3oTb3WCYOPQcBvso4G7lBH2Qcp3ggBo9l3cbBWdOJHbmYo8zSuI4lMjqYOaDsMq6uNHonVdK37PJi73Sspujaspn6chRG3KWOkC6imbgWOuopmaHtvy08O1z7pnK525ZbtDcSnO2J9Y8Z0mDfD2VijHB18/DQEefmIZ3G4BWjY55O5XbSkD3sEx1Xkxxg3KDRoAt6J0czQ5jtIRnpQX0v8A+VlMWGB5MssF1ZFp0L/x9U622I/65ebiN2Q5vzTn7uXJGlyfJ2pMAo4WaXusoYIxgxtvZJklcGsbpKdT+TnGODQXbXIMiaZHu2JsvlR2QNPNt0q1LA1ny9MWyAOadifVeTW5UekxjYsoYFZL8H/vy5uuFhdr2oR1cXPgbdqMdHHzGV2tq2ue5Bu3lbEzwTYWaseCNQ8ZkP7+yS55sAjT0zsmlZ/mhDSt8XbAhkNy5+1IfUn1Xk1obN2md5EG7Xt+iyJMHjl7r96zbFZ1gFfWdyvfuUlXLp7KvpJUbXDrZM5/sllNCbPn0n3VHBALvebJsUYBf23b+nnuDfErrKqIfmX8WxYVkf6rqp43/m9C6ppAG1DdI7y2te1Y649A1gwbfOQhj1GIPeOphxd7KhkpCOcjuLFOnqrPqXfTo4rJy+el7rURS2p2cNKvPPI/xctpX3bv7Vi0j5LMcQhzNU+252Ka3yhBf3mL7LMCe7t6Z8oUbf8AlH+01wQcNHTw1jgg1l3PcbJkf8x2Lz7PMtU8Dc3aUWQE09PuGkrIgY6R5+aDq2QQN3bUMuMzO95dXTRt/Kvumf2rPhjI+FdZSR/IImjldCdxxCLhHz0feYsphdG9vyQi8pdbH39oQkpZA9vRdHILtcLFTQHRe7fBOids6WKJ7IwRr5xmM1PZ+XKbyHUZvTp6l1/d3IS1F4ab6lBlLGG8dp9CS5nNS99qJe3nIe+EJKWQje3YULHInGsw8hfK4MaNJKyBWR5Syo3BzeCp6sab5Lk3jh0sgaXKKni1nuso6eIZrB7OfPNp7I3lOnqHEk7NybWeUG9X2GHag1gsPRlkrQ5p0gp1T5LF26XRoSROMcjE7zpwjqIm3dxRziynGDGBZWQbIczISzawozw6WvGU3cVH49InYME+vlGJwj9nFztAT7HqI8GBedVQ+zs0DvFWbgPTPrPJ7bSDF7BtRtcHQhlePJzkYxGlTQtd1cukJvDHo2Gs5RU8emR1lHBFqsFvZxhiPXTYeAWQM2Juu5MggGSxmA9QNfRMzf5jR+6D2rKhdYlGGs06LrKa4hWj07+jbY1SVjxhHg32cSdCleMWA5LFG0i0r85/qLmPF2uFkci/MSYs/wClkHUcudZrN+q5mTT2ei5yvtKhaRnvGU72dM5ps9+Y1QhwvHHnu9TkiIz9LPFOY/BzTZNvpGBV2YDSEHbegGDSVTQ7Mq7vBADQPZ1NSg6M4qaqIxkNh6o2qiGZNreKyDocsoaWrmzqu6FtyqJz2G2Hs+f3M1Useg5Fz6pPFa7gLt8VxaUD3mri1ya7fyvVSff9nyjv1FvqmNGhot6rOy1muOU35p8Z7OKPHFDhhyyKf/k5LzSNYOJX8SJD7uK6qGR5XV0Y+bl1UMTPqsDGPyr70f2rF0Z/KusijcuvpT+UoZbnQn3lennZJ4HpOedDRdEeakxg2vdZVM/O2sOkeslRcam/19WpqkfAUBsdgoypBy+KmbJHzjH44b0RA7zdnu6VlTSvkPFytGxz/BdXSSW/RZ/Nx+JWfUsCzqz/ABX8Uf7VmVf0XVVDCsxgl+Er7RTyN+SvE9zDwwQbM7ziP3tKDHu5iXuuWGjlIdoT6mgaZINJb3U2ancWvasoYTN12+sP8FB/zn1aQ7YyHJh4puRraU4yaSrvcAEREL8VeQ3WTSwvkPAIGskEI3aSgZGGd3vK0MLGDg30OcAfFHLgDHd5mCL6B/PN7p0rInY6J434JsdSTNT8dITZaV4c08tjiEa2jbaJ2u3co5mOzNDxwTJI8WuFx6u4KLhUf79Wqo98Z5Gu4Itjz3/RXkcSh5vEcjvHQg+uPnEm7YsmCNsY3D05ZUxgnvbUXtvLT94f7TZIXEs7bN6ZPTm4P05Xwy4teLKenf2XYI08hu+A/T1ia2GRPf6pjhtaD6rMPcKfwcUyNl2tAxTYqZhkedyEvlO0snc2BBsbQ1o2D1J0crQ5jtIWXDc00mrw4IRSHqJcDwKw5YKgfzG2KdHskZ6xM7+oA5UsnuAeqy/CVJ8SZBTtuTpO5COEDL7b9/qssDxe4zfFPjdg9jrKB7tdua7lgkY24Y7FNlAIYxuJ9YpaoD3HJ8B0xP8Ap6rO7cwp3io5LXmmF3H1ebI0PzlVRbjflLZWhzTsKtTxNjHAesTtGu3OauZebMmFvn6rVu9xMG9wULNzB6uODFV7rD1wtdoUgZgWSZTFDUMxy2+qc0NMrlSx6c8H1ipe3Q05KnmI13W9djroxi3Nen0EpwdjH6pHTtOELcU+cjCNv19Xml7ZFmLe9x+qgg7QbnePrskEuq9tkW4tkhfdqZOzT2xuPqUk0mqxt1PO/S9xKa94tJNnerFzjYBFkJ+zxYD/ALXnMreph+p9f8+p23lj1+IQEhPm8mD+HFNew3a7G/oftU4yu6MSj5tSucN7jZWq6Z0Y3tN0JqWQSRu2jotoojnyYv8ABQwDEZV3eCaxmhuHQ6xwb4rrquMfNWhq4ifiWGj07qGhdwkcP2TIIBcu27kyni2aePr5a4XBRkhH2eTFvDgm0Nc7q/5bjs4LDptpaM5Msjbud3Qi6Rxc47Tytp79VNhbj0JKiY4NUlRKbueUaudvWzat9jeg6k8n250a79yLqid8hPvco5qUvj7jsQsuLNkbrs9IXPIDRtT6Tya7DQ6RCKBpkkcsbOqHa7vXscF19SwFYOe/wan09UyTIdtyUeYk5yLsuTKPyi7gyQq4xHRlmfqxtuVJUTaXfsmmJhZCf5h0Lna+0rwO1t8ApJYYxFG45rRsULgMyLOdymSUhrG7VkRYU0erx4oOGxNtZsseDm8uCquc1ucKx0JvmvlFjJNrZs1ZT3RSN3sffkp7HNkOS70Zkq5A3htRjivDT7hpKEVIwuO/Yr69Q7Wf66X1UjY28UWeTo+cPecjz1Q4N7rcAsxrnuX3WQPeXX1AHgpI8XOd2iiyQYdlybT115INF+6hJTvEjDtHQq449YxlYoU9PNkxjRgsuqldI7imw0rC97kGaZn4yO5DJO8MYNpRgpbspR/khHGM3tFNmpAS0DOQmp3WI0jehzZDZu0zlfX0Lcq+MjB+6IOB6DKp7eohxvvPoS+pkbG3inR+S2XP9RyMlRI6RxQkmBhp950lCKlYG7ztPrhfM8MaNJKMXktuW7+odCL6mUyFDmozbfsQdVvMh3BWgia3oGOdtwi+O8kO9B0Dzba3YUGz9RLx0K7CCOV8/k5wYXazHaFbmW/3IGvmEY3NxWRSRhu9208hBfzs3cautOTHsYEAwWZtchHCPE70WvFwU6eiF2aS3cg+J5jkbtQj8qNx/qBB9NK2QHceS8sOTJ326V9nqnD4gs6sFvhQNS9053HQgyBgYwbB0scF1s7XO7rcUW+T4ubHeci+qldIeKHm8RDO+7QhJVfaJuOgKzcB65zlQ7Hst2lHnXZEPZYNCAgYbb9iD6jrZPosloAHTLXC4KMlH1b+7sVpmFvFDmpTk90oCqivxas55j8V/FRhfxkX6rGoDjwR80hdIfewRaJOYjPZYs0OkefmhJXZre7tQZAwMb0C+LqpfousjJb3hoWVTyujdwKAnyahvHSh5xE+I79KzaprT7yzKmI/mWErP7lrt/VZ0rB+ZZ9VEPzLGpDj7qPMRPk+iPm8TIvqjz9S8jcMFt5epqJGeDlm1knzWe5kviF9qph4tQBk5l3vrKicHjh6wZJTd51G706apcSdg3ITVV2wfugyFga0ejyZWBw4oug6l30XVWkHBZ8L1i1y1SsyJ5/KsIS3xQNZL8mq1PGBx28mU6wCyIpWuKMsmq1cyy7SdF+SzsQi7I5t+9qPm8gkCz4HfJZ7HBbQsHu/uX3r/wC5YvcfmtpWZG4/JZsDvmuvkbGF1znSlZLIGW8FnUzF/DBfdW+azXPaupn/AFRyAJBwVpo3M8Veknc0d3YhH5Sbzbu+NCD4nBzDoI9VknnNmtCdPMcOwNwQqKodV2RvQDcAPUMWN/RfdM/tWAA6M2RgoHNPaUmR4qDI05XSzo2n5LOp2fov4Zq/h2rCmYsyCMflWa0D0dpWBwRdSHmn93YsmoYW8UGvJkpjrN3Jk1O7KY7R6p5pA7qIdPvFDL+6bi4oNYLNHrEkL9DkznLcy118pFjxdpwUkkdy52/Z6zzc7QQsnTGdUrzOc9TLq8D6nI9p6x+axADF7imRjW0uV3uDQsZco+6uric5ZtN9VjTfVZ8Lh4LFxasyoZ81mOB9myN7bcWq4we0qnn2luPqUdMDhE258SudfqxYrnHYu0NCz3m3dGhZsDz8l9yR4rHIC7BX3d1nwP8A0WcCF1cjm+BWExI4r7RCHeCAflRniupla75+lN9iyoXh44eoZ8rB81jUM/VfxAX8Q1ZtSxZj2u+fTqGDRlJ7D2JD6lVyabyIyHTI5NbVNuG7l1MDB+6ww6XWRNPyWMOSfdXUTOb8S6vJl8F1sLgrxuLCgHu51nvICW8LuOhZUbg4cFhyY9Ob4CpoDocL+kvNK1q6hrpT+iPNhsQ4LrJ3n5rFxKwaSvu3fovu3fosQQurkcFhO5CnqhnO1XdC50KeQaMpF5/mPv6i625T375/dU/z9KfOXg+6j5vStjG/lvBIWoNr2fmCyoHh4WHJj0ZPhTOJI6WHJirnAKwdzj9wREXVN4K8ry88V9njLleplDBwWflSHisyBiwiaPktULUH6LPiYfyrGAD4VmOe1c5Hd0m89AwxnrpPoo4Y8XvdZQ07NDG29Sq4zh1hXNHTG70OHJlVElju2ospBzMf1V3EvcfmgWQ80zvSYK9bUukO5mAVuYLvFyMnkp/OD+m5FlTE6J3vIPgeWnggyvzT3gg5lnNK39F3gof+Xp3lcGDii2lbzj+8jzkhtuGhZNPG6R3urKrHimbu0lOE0ZMex4V6eQgbkG1zMn3mq9PK1/osUWQkSTcNiMkpLnuXntYy0jtQHYPU462MZr816Bd927ByDmYg+gL6l4aEY6BuS3vbVeRxe8oPlHMQ73aUOahD5O+/E9HIq4myBGXyU/LH9NyMdRG6N+5yAacuPuldW7Jf3T0Sof8Al5MOTFZTyGgIsoxzkm/YrzvJ4ICkhc4b9iD/AClJlnuN0IMpYmxjw5CyZge07CjJQO5h/d2I89AS3vNxC6tzmO4IBzucHFfaIS08F97k/Es2oZ+qwmZ+q+9b+qzp2f3LGYO+FfZYi7xVsrm27moMiaZHnYEyp8pgGQase71SSnn1XJ0M7fhO8IRT9ZB+yBgkB4bVhy4q8srfBFtDH+Zyyp3lxV42c3Dte7Qg4t5+bvO9Dk1cLZEZfJ15oe7tCuLseE2LyhizRloPiIe07RyyfCVB8aw5TlOypO6EctxbH3QsikiMh37EJPKR56TubAgyFoY0bAOlZwuFnwhju8zBE0NRf3XrGmMg3txXW08jfyrEELatJW1dXC93g1YUxYN7sEHV9R+VitSwhp37fVubqW33O2hOdE0zwd5v+1mEtKwnJHFaW/otcD5LrJ3ra4oZMJjZ3n4IPq/tEn0QawAN9JNVRjmp2NLrjbydWbx7WlZURs8azeSd/uKI+J5C+VwaEY6DNGjKW2R7k2byp1bP6e1COljEbeHpM5oPiFn08Z/KsaOL9F/BxfosyliH5VmMa3wHrZM1O0O3twXUzvj+qwrP8Vn1ZPg1dYXyeKHm9MwHfbH09Sdrm5IQG9ZQxCEkLskhBsh5ubdvTmjTIhfQ1t0c4SSbgryuzNjdnJDUyRg1Egvc/gJlHGc2PF3iuDeTKj0ra0pjZ3l+TgE7mXZGVgVtJWW9QQjtvsmRt0NFvwDLO/YM3xT5ZMXPN1xPLnBWyws52CzQmqlvsx/AQo4j1cWt4rgOiSU2/LSOOjLt+AXyX612DBxTnOxe43Q39A8jOQhNeMC03UUzDjazvH2/inhhvDFgxZZ0DouQCHLcaCsmXGmkwcN3FB8Zymu0H288MNpZc1q4lBo6OCbboZLkQUKWtN6d2q49lBzDdp9umNh6uHN+ayzoHSxWAt0bFWchQVj8x33ZP7e3J5j2WFOe7S43Q9LxVxg5qilP3jc1/tvIGmV9k0cemGsRa/Z0blZJFl4qpp74WyvbdGPeKCxWHQunFOPQuVYaqytjUFM7YI/bdLJsa+yCw0L3VrLJi/VYklWGk8jmlZqwK1FZWGjeuARcpKl+mY4eHtueJuuM5q3ELFYYhaCtWw3rDWVynVtiDpa33VcaVY6VmGy2LrCu6slmqmRR6gxe7cFHDFg1gsPbhraJt43a7RsWausFitIXVfqrnEoVlXYwtODN6ybDJ0J1X5MbcHF8aIOa4LTdYtCwsFnG6GQzm4O1IUIaYfE7f7dyXi4T5fJpEbzjkbFaWmf+XEK3MyX+FDJpzGzvPwT6Z5Di3apo+6/lyYmhpazOspubkEfN71hPEuuqmDwCDpr1D/e0INjaGtGwfgHVH6cknwhVbfDlqpPfspJT/Mf+B5PhCqz4cjz7qldveVSAbW3/AAPVHc6ynk7z+SQe6pB7xVGR3PwNLK7QxpKllOlziVBfS/O5CqqM4WkK5vbE+34G81Yesm0+ChgYL5bkyNmhotyicaszfqn0zzZsww8fwK+aY5LGC5Uk7tXQzwTq+YcI+g8sF5Ys5qZLHg9jrqOeM4kZ3A+3SJZ2l/dbiurgkeEBKHxeKy6aRsjeHKXPNgEaWld9nbp94psTfu9L3bgmRRCzGiw6GKMsQ+zy4jgsmTGnkwcP9pr4zlNdiD7aMtU8Dc3aU5kRNPBuGkqzGukcfmrspXAcV9op3sCElNK5hCEcvV1Q0t7yJdgEaOhdaEa7u8hDTi5O3cmwxa3adv6T4Jxg76J0M7cOy7ehS1jr0ztB7qDmG7Tt6F3mwXW1UYPisKxi+zzsf4H2jd5ypjqMRmqnlxOzYhLPeGm+pQbTwgHft5C17Q4J1V5MbkvGLo9/gmyRkskYVHT0947t6128oQU7S5zvogxljKdd2/0BilGd2Hbk6GobjsO9Npa516c4Nd3UHRkOadqJOhOh8mgSyd/YETUTuIOzQFgC5YxOt8KvG5zDwwTYvKB56DRlbWpstO4PY7b7OMj8ZDqN3p01S4ukd9Eyr8otIj0sZvQa0ADoF0hAaFK+gFoz9ShDTMuT9EGss6Y67/RFkotINR25PgqG2c36hNgqyZKY/wCK828nPIh7Tu8hFTML3lB3lE8/J3ditDTxtHwrGNp+SOXCI395uCyZM6M6r96bDMb00ht4K4xB9mPmmNmMFynzyauhjdwQra1vUN1Adq5qCZjnN7IPQJdgAjSUTrQNwc7vIQU7bnadyEcQvJ23b/SYZk7NRyMNSwse1cFG+iIkLtZ+3ovgmF76DuKkglwew2Xm8rryw4fL2YzyfC7DTJ/0mQ/yxi88FH5OoerJGNtgUBjvhi7w5cU6hoXZo+8f/pCGAfE7cubp253af3vTZMwtINV+0Ix1DcOy7YULZ0B1mITUrw5p+nRjrYxjqvUJ7D813suWZ+qxt1NUSYukddGrnwfI3LPgpp39o4eCNXKOsm1eDeXzWld18mse6EGMu+R5t4prAOudjI7j6hJBMBc6p3FSQTghzTZCSEnI7Td6E9O7DaN3Qnh0nJuPFcWuVNNpuz2VzQ1pnWUEA7Tx+iFPFmmTN+ShgZ23AJkTNDRbkkqJOzo4lSTym7nm6/8AI1bf+If79SbWxjPjwd4cjXXPMOwkamSxOymOxHJNK3S1hK58zvOdqk4KW2AdnD5qSI6Y3+yooNkbLqSc6I2qOAaI2qSodoiby+axO6qHT8SgjmeI43OznHBMbBbm2izbdC8zsqQ6rBpQ56ACHhpTJqc5THdMuebNRjNUL6F1VRG78ywx5KpsmqYyrDwQZLtFwV5hUuwP3f8A1yVTj/TKHFU+90Df2VWzZk39lVW4GyqJe8+yq3bn2Usu18nJPN2rWb4ok5z3FZM7Cw8UPNZzbunEIM8oxmF3fboXOwSsfHpuCnQeTLSSaC/YEXyvMj3b0x88TmNdq3QjmJNK7SN3FNkidlMdiCOiXPNgNqNLQutAMHO7ywF1hcLqqmVv5ljKJB7wUtO6FrXSC2UqdmkZYR5sdbHi1B7bh7CoZ+1azvFCAa0xVNFveoWjsxBVZ9weyqt3/tKZxcVVX/qOUVu8eSGjYcGZz00u1I84rIqIw4b9oRf5Pdzg7u1FkzCx3FFscjmtdpsUI6dhcShLU2lm+gRhnGGw7kYpRh2Xb0KaqN6Z3+KDmG4PLd2DRtTqSgdaHQ53eQhgaSVkZIe86xK6ynZ8gurDo/muoqP1WZkyeC84q7B3ZbyOLBZkmcpqV7s1wygn5BvFHmtUta8YNzWqoydDc1VM/edb2VVf8rlF8RVY3/2FFm1j0SqmU7X2TpjrSO5cmojBPe2rNnIjWRTsA47eUxSYO7Lk6KcYhNoq53VnCN25YK5wCdR0Duq0Pf3k2KBpLisluMh1negjl2sdZF8JyXWsmQxAue82R/8AWz9XJ73Yuc66p2EZzhlO+fsqsae/dSR7WPQqBqzN+qdTymzJv3VTJ3YyjvKp2DuD0JGAmbquRilGS9qbReUH4jUeU6joHdXoe8bUIoBlEoAYyHWd6GfeMeTzqq+/fo4BeZU7rxx654qO46qPOegBo9lMqAM2Vv1RgkNmTfunRgda3Fnii03jkYf0U9JW35/Is1+9M8Qo/hHosuPCdujiiyQFr2psUDS5zlsdM7Wd6Kq+BBMpfJzsqYss547OCayMGSR5QacZnYvPst8bR1rc5i2skY79CmxzENqm4OG9GaC0dTv3oiphcB3tiHBREbWD0eW+8cm8bUeYF394+jn4i3II6WMyOXP1Nn1J/wAfZpraBvWdtg28UHxOMcjUGeUornvtUrTLrNItko20KB21ot6vHANLjdQwPB5vS7wWRSRNjHs8ywdRUbxoKPU860bWYq3m8t/hTfOY3R5WIupKR/axb6vIRixua1TVjvhb7S0LnYh1sGPyTJY9ZpumTRaHfT1V9j1kmDU1jLl7zZQ07RobnePtMtdoKMkbfs0mLTu4LJkxgdpTXxnKa7ltt9Lk5Qyt3KXvNg3FFw+7bg1Gvmb1cepxPtV8FQLtd9EY5R1fYdsKDJLvg3ISQPDmnk8/8lvPON12DahH5QHMS79iyonh44ehJebBOg8nnKkOl+5Ruje90hcm5WmyxRpKR2YNd29Mgh26x3BMggFmMHtZ0NU24/ZHNL6c6r1lROu3a3YhY83L3TyGSDqp/oVa8kXEaEBMGzDihz8LmHhivvsk8VhUx/qvv4/7lnVMf9y++yz7qPmkPzcuvlNtw0IMp2F5Qkl6yf8AZZVTKG8NqMNEDHF3tpTYqdpfI5ZODpna7vbBjnaHsdsKfUeTM+PS6PaFdhLXBBlaOdZv2q9PKDw2otnYHjii6lcYXfRHJZzrfdXWQvHi1aOTQV1cL3flX3PNje5B1bJzh7oWSxzG27LMSi2jbzTd+1ZU7y93EoMp2HI7T9gQEQype0/21VSnCzCjHFYHSrTxkcdiDo3FpQEhEzfeQFQx0R4YrMqWfPBYPjcsY4j8ljFCP0WcadqzHZZ9xq+yw/Nyz5i0bmrON0I6eIyO4IS+VXWH9MIRU7BGwbB7bEQ0zOsppj8KtI0OHFPZTtwdJZrUCyNs3wuXX0czfyrOBCwcR8194/8AuWL3fqsbrQmxxYucnOke1pAvZWVNkxNbIWAuNvbtNB3W3KYe+SVNJttYKJzhdkOe7kxXX08b/FqxpQPBfw1/msKNizKWIflUjBBGMppGoFknAxy/7Q4hTN7r1TSDawe3Z7YjKyWqGMdlqiph8TlNUkYyvsPAehrHR6OdKi+EKTc7FCMnOhdb25PMcMlhKjv2n5R5JnbMqwVLFtDMfQSSnXIsziU2+LnvTW7goKgaNUp1O85k4+vtwQg507rfJTTHQ1tlNJ3Wqmj05cousOmY2nn5u61B0uZG3UYhVTtsxurySRHT2fFBwu2SNyDgbTt12+2zENSnbk/NBx0yG6Ddr3KSY6IWfv0+agNppsBwCEceL3IOl66TjoVtnKamm1+0N6EtM8xyNQZ5TZzT++3QsqllbKPdPoMTZZr2nwPs+WU6GNJR700iZGNDRZU7NlrqqdPd0z3ZrWoc7RkM4OTJ6Z2Ux3RLDoYwI5dhlNsOllW5uTvBHIbzo91XY6SB36LJrWioZv0FASOMDvfWFZCfzLGshH5l/E5Xwr7PDJIf0WTShtM3hiVlF08viUMsywu+JOpK05crRdj949neZRHrZtbg1PqX6GYN8eSKSnYZBa2CysgN4bUWvwIwVTGdVr7josromFzLWfwV26UBlh4G8Lr4Wn4UBl82feWGI5Oc5p0jduTsXUus/uuVpY2v8UbMMZ91dROPzBZuS/wX8OVjHk+K+0TgcGrCPLO9yzcAn5WkaFK/Y2P2a6eoOjVG9OkkzpJXYcFHE383jy3OhTPj0FyMz9M7rjolkgDmnYi4MdCfcKwmmC+yVeO54WVPESzvNxCDXkvh3LLjNxyeeUF2kYuAQjrs1/fWUxwcOHTwXm8RvbWRnlFpJ8fl7MMtQ7Hst2lc7Oc3sM7q86qG9Y7UG7lLnEABGCjOZ2nb0JJbspWnE7+CbHGMljRYD0JDxcJ1R5JGS/S6LYfBapY4azChIzQuCNRSt6vtDcuokLV18YcOCzspnyX3wX37F9+1EMypTwWRF1YOwJtT5UBjh0hh0uVm4D2WWgiSo2MCMtQ4yPOgIVFc3HS1iGUQ0aORz5DktCMUGbD+6bPW3iptNtrk2KBuSxugekJAEdUNV/8A2nwVYLRezh/tAg3aUbi4KdPQtu3SW7lixsje0x+goCfL8nznc7NWVQ+UGub4XWZUQkLPqoQPmvtVU9/BrbL7PTjL7zsT7E66ZjPFysypiJ+JZhB8OiXVUzY06LyW3m2f1DpWYHSPdtQfLaWf6BGWc4bt6NXU4QR/dtV3YBGKE2gb9Uyu8oDqtMbN/FWGA9Nz9OLVUf8AkNy5ipvkXt4IbQVgi4jm5N4XUETN+qw56HwX8SXfFisead+VAV1M0t3sKbPSuymO9hFzzZoT4PJbubiGGXtciZXue7iVtC6iokZ+ZC8gl+ILrKWM/NdXSxt+asJREPcX8yZ/6oOrjzbO6NKDIGBgRe8gJrccn9gmRx4NbghTxGxfrIc4Ps8WLz/pBrBZo0eof+QpG5jvvRu4oQVBzOyVw5ccV1kDbrBhb4FOi0jsqSlJzJG3tx9hMpYXWdNrfCmxR6SgCwSP3uWdAz9Fg0x+C6uow4hfxP8Ais+V7ivuss+8rRMbGOHIY4Dzj/oryuLiuck++kx8Ajw0pzhjlOs1RsI61+c/1EskGUx2kFGppQXUrv8ABCCqOb2SrtcsehDbTkJ0uyNnsIN2NiCnedOT08FlTv8AksiLq41crzmcdW3VG/kIBzpMEwvxihz3epujmaHMcLEFOmpwX0h291Bpz49yzHZLtx5S+V1uG9OlftQkkFpZs4+woK1guBmPQLtR2DkC3EFY8uCypnhoWRR4nvLHKlkd806v8tnmom6sW1yLsnIgH0G5NZGLBuCssgaseCErx1lQco+HqhY8BzTpBTp/JHjzX/StPE+J43hYSkjitIWVM8uKZVVjCymbiL9tZI0ewnwTtymPFii+Npmp9jhsWSx127iush/RYxvWEbyrQMEYWa2Sd53YoPrncwzu7UZQ0DJ0yP0psFNcU7TZo/2hFEPnv5JJTs0KGI484+7vBBjMGt9WtLG1494LrKOP5Cywjc3wcssQmQ++boBuAHsSxxCLjFzT97MF1NUQOIX8YP7V19UT8IV3RmY+8VaniZGPdCdLUPyGN2rzeluKe9mt7yzsZ3ax5WUzfFynrnj3GfgUvkNmtxJRihJFM05o3rn5x1zvpyve7Vbii7SZHKCAaQ3H8C80w2dMbfJZb9SLHl4oUzDpxehNIOqgx+f4Go92KqN/K+V+hqc84ucVG0jrZM5/4G55mLoDf5IskNmSLervNguZg+7b9UJ5R1EOJ4n8DuZILtdgU4tafN3G7XKzJLt3FZMj7N3BNipwbdp3dTKeAYN08fwQY6hgkYdhWVSSOp+GkK9TUukG4Cy5ukjEbf8A4J//xAAsEAEAAgEDAgQGAwEBAQAAAAABABEhMUFRYXEQIIGRQFChscHRMGDw4fFw/9oACAEBAAE/If8A56oa4mBf6iYNfpn091lj/RiChymggrHh0T0N5QjTrIlod6tnUPqxO0eiIIp+9+UQ3lPX0h3eRuHp/Q2P/fZ+lClk1YAK8Bgn3BkV/XLYa3xiW711pLVxdyNCmxaMF2+gWSH+3Cf0Fz3Kd0V20ruswXjyy5gTYJW2qd4Lj1BmF9kwF2UA3abhKWbeiaQca2R25hSQZvl8f0BO5U+8y6DNlweHLPRn5SmW9Sag71Kj91O2RMkeQ5i8CzSogLkRxyOrgQGxC+Vx8/XVdruRJvPJ2g5gIeUOh9MFbBCUaN7MRFu8RoXSlK7OHiKlA6MVhMJyfPgTtGY37P1FLRWk89G4WjUBCg+8sz9/4gj2J7TNrWnaMl7Ort8/a9jaTO9AvIPW5oZBj18+jgDDGAF/swbHBmFX/kIraGc/SCoQ6cPHz4CU5ImSXCep2ZZXF5OkR60e3nNpYbILtb7JaBsp2A3SaSDreo+fvHECbRFS60P8uZUrycdYDG0Y8wZCCJV4vHabx8vEug4e0whGw4vP0ir2Qvz8UosPPmX6L3VgxkVrR4iCVdmHzXFZHMW5jJl06CK/iz2iitv/ABf0A3QTR1x4CVkwOSW28uv8Q8t2Zsa7y3DhYJ+bMo7Q57y42uO/9AMphRGexizlsVVMHRAz2581G6XZKw6ti4esUvaL/ZJo/oOAYMLRGG1HJyTdkNOPI6TjgTVOj4LbCXfrAO2H9BoOGlbwkyq1ackfs50fL1sLFR8kFl0i6KfedZl+nzgYzZTB/m+d61EzccQItDDogYPX/wDpgNcNnPlD43itzaaFLWeiQR84L7+Q2u54XVycqP8ATMLf8h83pPZTpBgmbeKRUcZl6nRqu2iU7t49Iq2rm+DtNkr7q8iG+ZgOsaHOsxq6PIYwqyV5hCy/yZSu19HzdrhNqnCbb7EV0UHuxBfLgECDfqmpLGiHcl3TTJwyvIe9qMyfmJ2fIIGWT0ZkGDJ5KA5gWnASlbKtiawq3pBv5vtO1esBgycSsO5UKmPc2lU7ZDeUDJOSATZ6i6UsRtlvo+QWbsPvFc4P3is9I+FvrylGqxk65KF4Tvbzb5v6MU3NoOzuO8VJouKT0faVcCir78tj1PEvGAYUW1PsnyZWf5c1ByTV9Dw0lKbZTQVH9Ylrn664ICvU784V2jDmtSBMDQIOyzcYJAqjEucLFHtOG7t2mYjGiwcYN1+0NPGtaKPvKfzZhgHHgaxc0KmWUqhfaUfs/bQQFAK+VvjGZVl97gyCgZwmS0qwC4MMcyMfwgFORjgVqA/wS7PQ5gBds7iVBVdxi7CWIvA/tIiNMXsxVrL6q8SH1T7BKqaD4g3irKzdHnXJjtBptcvCHykBeAas07+Eefqywz6Jg/MFObAVYHTtFRTbeltammoh/EdRKQ2iDc93uhBazk5hi1ep4WEdekItbmkYpqx2hGIuy+8XLmKH5D6oy+gx45yyTAMJ6W8FWzGusoaFx5rMPlAXktXAQbDseP8AhFp5gFqsyItWPqdoKNhrS/eVKH+QIp0rNzVIXZPSBrTe3pNGHy+AnsFfxDKSGKapIL4tF69ctPhSmwQViwzebZ7v+/iuTU27w+mHumXwcY3SofJz0CtWJ4W3Tq57S9y3pYeZVUwULV6dPA/nA4SxhoqFEo6ujBhUyaWhBSLF7yvCzXoCZ36t1O5mbuUleV47Tv4EhhD7zeJvvYnLK06swFbFu7eB8numVrdBqesp22I+Imjl+J5CVGNaCWtoalGKZXsz73aT0fqEQmG/PVkOOWMqkCrkWxwjApwHJevX+BhLc/SIVx+lxbZo4l2IBgxXgfJ6/nR8IwLsCish8oXYBuxpxG7dPeUzZoi693SI2q7kC2utqwfRTm0ynr8iV0/CktAHer9ZgEb/AK4GV+qaHp5quDjI6JDxUDk6QG+R5zR4L9wVBY5tmscsfVfE+T1cryYmZicvFS2QGn+rBSV2FLLdHqS5Lovd/iUoo4MD09hKpwKsoXeVP0lsFmYEfq46kCpLUVDH7uOhpfmJ85s6enltkMHJNJe+otIjDOnzCzgBlnaZTKAtFNXmVXifKriYxMGrmWQWrYOwRrSDNYekov2tbTvK81RBw5JbcdMbczhLB7fiURB1sPFQ+r2Vm+ngREtjUtY90FoWiriRaKbk1InqbzZhr7cNGwejeUCAnfnxYfKnSElb/FFlO0dDxLON0j9/aHgMoAr+MRD4NkTDWw7dSIqrCYRmBpKtBDUgDeVDbl5Ye+usxAKJfUTinSYir214oqXy0WO0ZdtKdpu3PSN2Hiw+UvjRWvBG6lm7sb+szZHzH+CBTBMAafyoOHJKILSfeTNg7Wa7krdYDSVWNqjyqeBvMUYO8MdoYdseXJVfZ3mX0no3YQwD/b5bpMQporXdZZC2YNDiUwVQfz6lO8xAJxdI1NRz1JoYWE54goVuZQuuaCKgbarV8uAt/fmlzZuWHy0UdAzFUwdd0DUqdjqW/A2EIRyMp9aU2P8AiJf2hrszDGLNbIpv/J0jp5BbaojJ5VmMrQW78u4aGcsz7DRvTb3gUYK4+CwVJdxB+X6xuQWKwr6zVkN5A38UnXyaZlz2jVd19prMK4Y7fLWM4UE730JgGu/Q+ECn+Bof3PaHeZvU/wBIqtw9/G5VbSQh7Taufl9OGwh9oVBaO85+Eywv207X6yarsD3qbTERAbDxd3bQTlk+nkvyX8m0idbfxU0ygPb4LSXKBTmzMUN6LbZfeWi1U7MugUGEsuu3kysd6faXOf8A6ZLMQNiw24tZUuQWF76MfTTn/wAN4GNPD9BIigxuxpjjj+YXFdOXK8morF2gPZRr1zKugmZXpfEqn4GDPz+YZfwWiaPDQfKV7S5mhvKKuUSWLdE8Wd2OJhFNLVQmR0cB0d4lQN2ZbILgLmbiG6flKdAvX+0V9HFiP4opmGEBfT0SXD6syxBze9fSUwPRaiVklqbHeOWDuYWALQrTxElaMkcIVMZtr6R9a7NekD1YnU5+I+q/aIL8H5PhndsZ7yg9jNtNp2qarHzGBFrmaAX0RLc7Qp6AHvB37qYUYfd49p2q8Qxg/gFrtqWD/qJVrNBqsWpPQqJe15d7HvDyNzk9PFANmokvjnEYfMqwNNqwyVMxuPw47A/aWF63u+Gd8sD0zD22Ljk69p7MaFXqDSUJVqdU7zAien6QeY6DUv8AhuXLlkY1MGAUfWWplwGkJALq4MrCvJy48QcFWQEKv7jb6RsWgd+kPhquBbk1fqhZEEep8E+LrB9mCt/gxW6D1sShGg09ZtuCf7XNFtgUfx0SjyB8ArJS7krig2rXGf1h32GATkJjxO2laekXd77nw7Ks0F71CurVnc+DNXw/wuJ9R+8uz3AYPLH2kaGX8DUIeAvk9nbYzLTS6IxVVh6h423suGhExixY7fEU9ST7SyFurO7T4Jhr4Gpj8OK2bv7yhIFpobHhUr4F1hp4PQoShzLNcGTv465Rgu5ZZNqr+HZS4R9YmpE88UMnwS1DXwuFrI94oJem7s2IqfT4RhpGAM2bgb/8n4wClsR7TAJTmMXZGgAC99/gcqlV4UKUUroRq/JB0MzAGMfBsYTSCxuqe0SiMJ6HxjpM966G2zA5DJ33PgGbnib+3D1Zl3xu74R8DSLhpfWUgGDS+6YD2ke58aSwuUDbZjSwcPrHfpgD6v8AO+JBKU3sRgry122mUkLs22+DYsDrK8ftXYiXqrS6u8JlyiWdkgfHJgRoBnl9JYXQW0BRGoNz+FpR2530IJD3B7ekDsrtJ6QfAYXwu/HuzhpAA2joDWYfiB6eQWx+sJSXbsF+0BPehQ+8EFitG7/kWVGgziuYDc3k4UOovh3YPpRy5c/HiyNkdyWoHUrVvGHVOXr/AAg3nK9/P1bKD9kec+Xu4zMW7TW3Tay2DwroG0cvEs9jRwbBMERYDOx5Hwpct+O8RJG6+0S53g1SYemJSPktVDjpOr5Dkf46hQUymqI3IoXXoRPN4OrvMXjjR9CV8a4VTfMsAdqDbKJ1uApo4zU7M1ZDFjHbZgHU8/Rg2NhhHwuX4aix9IjzWzReDYTW2mej8zGedLu/EMGnJqkuyCp9CCEESFqZd9U0vXpClMso7TGsg+3ja3RGk1b711lFNNsoXiYejjuXfRlgJ0N4QCuvbI/x0AYxe09pkHGHw94izua4HNzRQmU+hNPjD6oyupY2DjS9pZB9z7ECCLo3NFt7qOzzQbl1dI1Ri0M8Gj2lpcAPUfqBsHC3KlVCButYQUtKRyO0oF1MdhMuG1dzgAIadXiYwVqGrxGHuXKYiLIt7eqUGLaOAh4IF68yz4DjPEUDBlcj+pXguPnVvgQIOjWyklMrr4UBnqjG2fwjhBq6nZmjHoRKx6rfoExnnZ4ehDdlaOXlfjDmXl0EX/0yxEZV3WvaLoj3le6UMvXGf9mGh3ov3hEJVzhYbuPMPSxgmky4nM4Ii1mKWTLnXojcqWa5Jbvyiq3RnTretM3R9zveWViaF+tGjVqAgqw156u00rrn4P3HoX6WAg3LDT18ymB8iakQ22OsJGjAaZdcDZ/EBhWM0q9Zcmbowu3hQWaJfcg5s8C9IVzcHQeYBWUMrBUM7tpkMdMj7RWZ549oAMHOISt9PDN0IQAAwB8XcfZ0wasuiJy9HXmIGXyz7pol6w7u28oregFHnoZLNkdZZu1P4iGrOK4fWLYdu2RfViSjtnjAcd41Lc0TadGFZRNkKpPtAI7yusPCmXn4y5fqDk5gCVKlZcdZ62IMvSJuJjlKUM6sfSCmTjXulI3sMJSWzbCbgPBmoj0T/wA5PsvIX9JywOCBZTuLuKEY6LlMoLq/4SrkFy5ZW00lEDNLg9pgWhzuaMh/vEC07lKiRU2w+sOJO6v4gJwWl1xsLXPg8Svgko0ZP91AExLJfi+Sri9H1DcZsroRatNpbMvKIdLmLF3GXY+izcT4UoKDrqEN6b/unV9WWvWZgMoTKsUCexGNopQB6q8M1lK7NbLlYWve7SwbcHDEgo5FxavQGWdHsKQHB9lLf2f3PqONmb+xm9vpTmWGen7wA7kDLKhBctEol9ZYpaV6VP3DNN9Nz7j1wOHtluCaXzPTpbAVzZSq9Jku/XdeIL/bXYnwpxVnqsy6a/RiphPLa7/1A7pYAor+bES9c9yake5gOQHsmA7cBMeRmSmrTiUJMbzzNV1Uu0qkoF9obeSh1zPqVlmtX0k/GMr2p98BPsqJhe3gfx2ybkud++Zc6EhXDFejkbpyQCh7XweGZdWkyH/NSrDfhSkdaA4lSvAmJj+Rcvy48DrsxSq1ZeDpKHnsdICKzTt8Sq8ly5cuX4X/ACM1iRrOMkQPL9OZDU1zu/gsNBam7vPv5WsOPMFrVYtIdVaJaFftlMcF1xCv70hChPXFylzfJOXGyqZQd4SenjV+NfxYZ2l1L/iJfjUrw9Z6y/LUrrgW6w+mlpskHWx+o+C2zqDAVCz920fZ/u2JVN8aLsTda3vPvR1F/cMJk7Ayx2+GWtMOFKF6PUGPdiaMrbOUYUarpjdga1v6yzdhy9pdxa2mbMDSzt4nlB2ALZXgXPB/gzLl+Va3Fcz6sJn2L3g/+s0aSNe9qD32AvkrwoyOR1g6MOvvGYspdn4FBd6EvNoodj/yEGzM9CPgZZakgYRNFL90r0egrwUSiVKHXMvsvyZuQbqpYPSRcslj1/uaNZq1cp4u4pOqBHDvMqzrqgMjaLuc2L/3gbKgiYZV+RgUzVi92ee9x8tSwlOZRhGYaja5gCe+iJBjpS338ILqdd1hhehQXT3kBqHqj9ozMlS8KTZOctw8yTQVniZ0iDLKLUQ2AGWG5tOnpCMq0djHwN8qm1S7yLfdAFHH3THluL4VGBmshNjtlr0qC1025+k7XO8Fjja7+kVaHr+5OTOA5PSC8XwtEwgNDfhfgbDq+0YxgZ8uqzDs8PlTKQGttS0o3v8Aebm9rdXeL2bncWwnO0p95jNlD3ZUe0p9FyX4NSnQzsS7VYC90i1bvlU+7HOn6PN2mg0JbhoSwEFUOmAylCi9YYADw5+BsRyQy8KOywnTOKvZ8EEEfG6mMBEOEvrxEITBb9k7+Sa5fBe+TLRH9L0NWU9Q5L6ms1Zpq7Ft+d73gko6BIOJu6oPt2ij6A4RsqHSnoiE6bK8DfdfaJocvvFjC1s4cTsPWCy5ZSvTKqnROlgjNO3jEHNjoLhutMaz9Q6mcWxO85UNfD6Q609z6TJu7CWekdZKtpjqTtnZFbEs2luspZu4EXQBAd2jjg/xMDjx88nwaY09Dc0YnEPv6xNq5T4Km9kwiSzvLMVC4s9XtM33dvVFDN3buXy/ayO0cw+pZIAxxHxTPZuaes7pD59GBzTkqmQL5fFfiCNJzjf+w8zWZlbrr4YW8P2g9xHGrKMapla3O4jgBZVqb2hno/cyp7uweksCDWUfWdQ//KhkYbZeGoUIJdJt2Wzgo4+pL1ypJABj2P5mD34u5oubhVTVr7ZqC9Mdf7eaB/RNTQ4LMPwziRRnOlEh7gbYVKA6h3QCgKDT4MsBGuzzFMBbhxzEz4swL9MRJpltD0mPdFwvrNQqOdoqGTY2+0twH+NJmH27CSNpV6OZXINTunoQAUFfwJjGymT1mN3tdR/mZi7irKZnwqFMkCnWHgXLNYrjt9iD1GWY9UXT7wPMHCrwt56zLg8PRUHPjkGHrNGatGul1gAaorHmXkTUSB332IPssK+sUarvxst624opTtKtE+rP/Rhwr0mqr0uYmX/V4u1RuP5YY30ra9ZUr4RtjNIy9JsxGGQ6Jbg7qNMEri2cDhaNC7cSztHF4lVi/wBFuKCvXZdtY4+utSvbCIIwH8dDrLeMhbS8kTITSXq6cvD+phvOVyfuVCuYL+yPeW3t9iVdZ1gQibs6ttvYNduNKu2BocCDUdeIMymg/jqfQzGfVfM/SDNBh+zDhdAdElSviMElkTUOv6ssXFXGTYgXrWCJDV8qlMW0ZfdKrTB/JXg3WvXLGN3E9ReKeXzDKctxCJUwGdpc8HKElRo909ZcwWxaJmY6oPaHy+5fwVaieDnM69SNaJcysO4jsRfrBJpysyxqwupN5fZv8XBEzdBdrhU0cnY/oKJgvR34RA7953hDfW8dxGzCYK+ZqL+iYo96jotrmwVPqD+hM0b7sP8AzEFrnmnjgLxF9LRqXbXhYHhmgpB+s7f0D3Bvqjh3aeVZRN+vksfBLyhocHhuU1MCriuRl+VAeAZ8T54SOAGZZFCV68sxLwd5v5O8SXdYQUuDw1lpLt+pLWvaBvisG78D55hGfbuAwyk2RNfK2DeRZQrNwx7eKrcno5sTe4sa/wBQBBbE4+eXUe7DqXjkzCHD38wFBZLVe8u4PZic64ZbO1voxd/Owxa4d6xE2tqXllXrKZ8t/wAAqVjowbzfw9SWFsPUPna3tG17azrDBQA2PLrMODvNYiPKknSZZmRNtw2rQTr87o5r/TwMCqoN4ZtCeIHRuKxbRdtuGj63LrVqCaG5UIqUE4TRhfrcy096iBc96r87UnUL1ma7sZLvZji8vU4g1sOk0pRFPATMOVOAYJckYtczmHPqy9bnvM0wO0qPW5QUaBmd+ow6vanzuqFj6pEpNrpHZgw1Vk4Yoq7c2PpTUzkS8kK17xVnvSUHlKOXcw8tFl66rkuAr7Rmb9pnG+tiVtBGa1fdCSpjYSJGlKtvnYvDLHvsmvntAy6dyVhNyI5fahAhhetnMuNyGucwoZAoViu0FeggMj0iCVGSqmGx9ZUV3UMwhZHi9Swo7dOZXZx1HK+ePAOZE1jBVs9T0i18Nx9iXUNwv+paVHI6eYCcyz1IqHS9Twfe4qvhhq1gZVC02K7QWsOcxOeRvYMROWrtNLsgaf0BB1zKmw4qpZdLn2c+C6y6Rrayx7GJXbL12MR89+N/PMHzX2Zb1R8Og6+05aTB3pPuv8FeFSvnbpBDbKvpHb0qPTwozdfaG32+/BywKfX+jJDTX0Itoct6scJq5318BZckUFop0uW7bV2jp/RsAeOjpN7QI9t2AFRjjavB0iBKI44awfown/RS4qsx/smjjbMPN7W275OFQmtGpEVqg7iMs+AofPAAtwEp3mqW+kXgZ1KIqfdUwdyw78QAmyu0oZPmOh+IMqFKEKO1keQFAuzPaZhasGvcgBbZwnaKc6oOp86qUhicvQl+MtPQdWdDQhSwEyGL1MsZ1Qs+kQ0+l4fSUJh1PcRuKTKxbvLQ6uJYPGaYHMPG6DVl7zTy3FSw7rma0A4sGWSvndf6hry2DR8lQPMsUQRqZxSrPVgeX6PzB0xExD4XK8xRRYvgcTrbxPZgCsZZae8oKqJSOolkziCLZGEG9MUm09TQTiOkc03oOrBMFMOVKrzgLCaGXKlwdPA5j9miHV+oI07A4SO3RMrACO7Wt+Yi/NKh6E1R3Aso2HkogQr5sXgBLPevcgRSwH5c/wAH7qJdRq3A4qORDJPewcbMAaHhcqDNVtdiWShl9xlu7FtYPLDYBMGV/UDyvko3Rw5UUs7HGwxIpmrb2dI41njw9ETMmf2s0DrYa/7gcUNhMaN2wxWjR2HmVrv4jAlaUVbr5gZ6VnyzN0gYuCXbEhqRdmPntEmooaku/FY6eXgiCnIt36iakS/Q8wRyBhy5W/mfLowNwfTtFVdom3PWAQLVtYQCTDk8dPKD0Hrc0MezXbZiNomty7X5WxaCGm68QZClC7f9RfKfPSe3rM09K36oe3g0MqDVmMdsTrGK85YweYVuMLjK/mcFM48n5msstJh5jA15c7dIcgcl5XHl3XtA9mOi0utsxCYyOnypEaU4sNhnsXpAVuFdjoR4lvrxsPaBV/A0P3KqOJtMsD/lYcoMG6ZZ0E3zw9PgKgJbTtMWK/I1Novkkz4MvWI18vjyKstfZZJd0x7ZGDeYV9z5VkusLexrDEsI/dAS4JDGJmCBa5XF5ggUcng9oUavoEtLur+hFK1BnPf9YeS/5TyuWhrz8LAiFjU5leJim54aaue4QNdMrKHau0Kith9Bf5io7WHZ+VME64dWUkvDerLT3nnVgHbxnq+Healm0uHdAGRu0DfMZhAsWV5EO4Ty/Uyzjm+B+YWE9ieL5DQEZV0JTg2yDV94AN9pQmo6dG/Asrs/aW1pWkHHT5wk0ra9d4uoO3oBAGor3mQlWfchzjH1fKrDrT+kBg5nQm+Qh9MQEjKPQ8DQat77Sb/h8qzoU81FwJ1e30ZyVjJ7Zh5Fi1UwuN6vs8xA1ZVawwD5DWOkXWu/CC2KaInlKAe1RHr0Dq/UyqU1amVH6LKRMNM2UFS4ZagjLoOuImrlmNtWJmBwmU4lQr6eEYcXMjwNYrtFx0IAC6r7DmIchJbtT7nylVFSzf3Zaj/3xc8/eYA5F/v4JgSxcukq/e3xpT2KewzuENgIHchqC7zFy4nxs0Y73AE21lxOw00te0Vw30tMv3nCupgKT4RuznxUuEymqJXkWm6uO0VwXLWhzKPO492zXP1AZqxdJEd/YMs0cV8xBWirL13lWQqUde+8wea30TWdBCWzvFxhZTfdjE7cPoS6Cin6fKRcNV1/IwUDUt95fOKo7XBs8qzi4TOgZm7EDOgYJT+sLsQ0lVHVNYBQ9Y61s0rNcXC2D5rl6ypUD3DpaMoSvjqczN61l18RUKETFbxC9Bm+ItFloOrjtFLDnGhzCQ075mHXwrrGZ8aD3h6MXCjucOsGcMQFKB1el+5mAJd2YFKt1y+VKA1R7OYO4q/WKErMThKFfKV0Ok28UntHZqr94YyqR9TxrzMgE0s3xHlopv7wmoBl6nFxqvP4HfEsmvjQ5lGZ9L6dpevnqBZyIfSWUNXSAJCWOt35gHYdg4YKLGGrY0IOAAwfKlp7OeiBVpotxXSAarW7NIHOl9LXKEWUkjuLveCiNMXt/EnEM2D2xNAZHW4pQsAXAhQGc+h4nn3nKOn0yfeUga2hqrrMGWe6rCmAnV8fKxsg3um0yn1cDASrZfeTFlGzHfADXYWjvHddx9GDmx9h/Ha6rmbMja53/nhfgeex9D6yqiPa7GDrcEUPxiNPldXNo5Zf9MVt+EaRIlXRnXe5LIKI8skdnfa7QAm7PufAHnFPr50IsYnG7IcCTYy+vy5LjWRah7pEjgtcdom2HG8QNepNYlnMe73PgDzKGuCXp+hCOUdS6vf5lupvtEK7g9d5EPoUIHYFg6tzwv8AkfPgCJz5OWF4LG+VlVBK3K1hp5T5aINlSS1UvVt415crejzADiwjDSa71AVaxqXL/hfGyjvp40iNZ6RNM7l25i7Rlvd9JXzQw4MPLmJvUrThl8bct06wTz4R08KaJZGk3qYBTWub+JcB93crwuV5aumZtqVNYn4fMAAdKVdZwGq+9RAlUGrDWSsDq47QA8Mx95mO6B82vq+jWXGNSYTFcPEzBGvqhljcvWYSkXnqKhpHDt5SLex95zpZdISarY1Ku/emJBiyvsmjmuiBt0thdysGeH/Ebe49RbCZePzM16ZXTpisGcrXpHca72P4iz9/zD2B6G/HzgtrZLDNMTe0OnMBsHCNZlcy/wB9ZdJbtoekULzNbnCCRLtE1X7u/pMHR8kd6PSeqGlf0i2pcKIGXL0VMAZlwktkRgRXrKKV0ev9RMza5obpbIY+8Nu5l1fnTMaN3qIUkWuk1N/FcvWDArhGpTo9v2liY1cEodbzj7sJMu89M2OukB3S9C5RKbQhkFPDfgliJekRA5Gqsbl3AbnSan+7DFzgfnaIaD6SYW3B+Y33lDK9yDd6JaFTIVnSmbMOrd+pKF01KZs3cMlWnvpqb7tl7p9ZwfTBGv4zvAJg7rEv6jUoS0RtXrKr55ULr95Z1WGBor9Wxbi17pe31lQMBZA3P8P3iFr9dTJHqNmTT3LhFek4sHsDcO0pJjn0h3Nj+pMAamPWCPR9t880LjrxCQ8YhGqpHvLF2DB9phjuX+N4aed0nGxq01mSuH8UvtUAfaHYiGXs6R+dvPT1ipqDV922LV1FIb9jMQ6GgPc5jL8z3louSAtUyvVZyccXA0Pd1JghpGaxj87xP71syxDV0r1YNzStd5rvM7Rt+hDAFAY7eZqowoHOw9WE9Xwt116sVSa7mrKhwWj0DSJKHR4RgGQdp5+doz0DO7LKbZvp0lf4CPYgk7QmN1+vOUzWh6zM3ly/mCnp1dB7QYBQ0NJcqUwVXCe+M46na+lbywygvM+tbSzWmtn8AVl3M10eiyx+XYB1voS23LF9WB/QhF4J063BTF1MoHOxcKmzlvQ7QAg7Hys5jQ7wWaM61mZNvIl4gVOGOvpLUJuq/EqO7qLFB/jje8vX2wx7z7Bmfbcy0sPgLBnjV4SwR+OHuy5sO7xQ2C2J99ccr+XCunro6+8ohZXdXgF4X8WPGoMNyh3W7HDFDsAPUz9vKtsLwajRl96LtsxMjMZsTEdfVPtLel2EAKE0plxqBz2vaYqs1wM9CbktTPlj2mopbEVlAm7qW6V9SaR9bInPIlf1lOkfX+kCodgolURcvvcff2eq/LQ2gHlfEtOx8zXYmwWWud0cz6QbOgZek10PXaGpVCrYweUIJ0owxO0y4T2n3aRiibv89kthv/RtLaKy3SBuVZ09JZiRuZ1ho9PM6K9ylmV0Vcsm3jRLqYiAtM7Y78S7eKfb8sNksxuXgj9YVocD9ynoBlNPPiGJsq1U0edo9PaEmMvNrB0wgbH8ItHMiazXU/8AgiNxW4sa3MyXkYhmLRkrWJZy0zXzLT0a/wAT1WTpg6773eaWXfE/9aD2+m3BVbClHvKZ9W2wwoQT/wAiHSBMBx8rQQzO0eseHOPQOAhYVgv7sdHDS2vTwAGPKxgE3BfvYHdsFK6XQg9T0B43/CR+NPfjkQE4lqZ1w3AChZOSJgfDMxY7JgXAw2MfsLgV16WfsYP1QiRD6SFERpdTF9ZRLR/7XyO59nOloo2DMp3UMvyDCg0XPtL0EM6vsbR2N2Xn1udQMJ9GU8RoNVAZXZdLjN6DLwS1McdfM5ArJ70BiAYA/lNI1puzof5Ud1zqauZapYRmsZcTp57RNdm1j2Mt98dUhMKGNh+UVzhE8Tmo+zPqk8dPkVJy2rxLQjWfcvYjVE5WZZpLOdItfb1UGBx3WBDqdIicg5WwRS9jX1lXcp3XKCl5D/SBiOuMvdlFsN92JlCcG0wSpgjuGyccS/ezrv8AqUzqANj+GpXlYqZFiNcZRm0uzAAdVpDNmZUEUadS5nF9BU1Qnd4t1jtdIxzE2xT/AJ8izHPc4bTWPc8BuwWs1K7e0oTx7ZkWOuJsh3MHq5om7KoJkXqksoCPEIEtwUoNXZ+5e93Bf4mN8Ir12otrVV7JnqfoJTsC2s27fAm5AgtYtIsm6/XWe/i6dJgLQmEdZbjBlvgsRqjlXeBszr7uPkOiNraT1lWgxXqw8zPls1WGcblZZxvfSWuu6Dl7zACr0mqdcxr57QOLExmPTtvKregOh7wAYx8CSnc5tSNHXFLelnqJ7+ZhruPUyZKmS4PqhgOVM0FsdtiLfzymQ2PkTKSsG3Es/QehBs62M6kDZ4AImyU8/lqA0bFz8SzNDBVn0h1Frspth4gzt80VXpAxTAqWHVLRcVe+8Ghcy14HwdwBZ0DCRlwyqbXuiV8bx9YIBTQNyrA3wZnAxrY/BAT/AJUFDQKD5EAKkIxurRtHUlXR9c5/yYTNy4jQQA3m0tGm+rAAy4C/+JkqtdT/AFKFOuu+6BVQRxeuadwzuXM0TZpvqgo/Q/WDoAAOD4boQYX7zMAXe59Ihfd+HgFxhECulgNvkjgRNRJbCdX1dpYOHXyz9qZwffDAndSPaBjo4YLQyqxBo40ueplwwp0Ok0lDOZlH1vYjugzQ938f0UXhlGxKGVzdfPWUuO2CaYSrpj24WKVaL74gfUa/K6/0UHn3r3QtQHHl2JUupgDVNWLeexHtGt4w7CYH9Fyf7spa9Z7TEyTiLwBP/JsI3A36Kt3Q/oxEcjOrWUcIZ4doIU0ZYqDqrM4Zst6/1Hk3n2uACjB/Rq0mQ5Iq4wRg6LAlWMDZMgvqdS+KJcYHMo1hlu+f6Qe28nZEt21rIfrLWtAJ4Zoy+sP6XXzj/9oADAMBAAIAAwAAABAAAAAAAAAAAAAAAAAAAAAAAAAAAAAAAAAAAAAAAAAAAAAAAAAAAAAAAAC1t5QAAAAAAAAAAAAAAAAAAAAAAAAAAAAAAAAB6vGnYYAAAAAAAAAAAAAAAAAAAAAAAAAAAAAAADKvLzuXcgAAAAAAAAAAAAAAAAAAAAAAAAAAAAAD+cAELaVsAAAAAAAAAAAAAAAAAAAAAAAAAAAAAAC+0EFX/gAAAAAAAAAAAAAAAAAAAAAAAAAAAAAAAwSkBHGt8AAAAAAAAAAAAAAAAAAAAAAAAAAAAAADT0tRiScAAAAAAAAAAAAAAAAAAAAAAAAAAASE8ABigBfz8AAAAAAAAAAAAAAAAAAAAAAAAAADqkXQgAgBGncAAAAAAAAAAAAAAAAAAAAAAAAAABi17lQA7hHeUAAAAAAAAAAAAAAAAAAAADj0AAACJUwtIC+iksgAAAAAAAAAAAAAAAAAABqr7IAAABCYwdkadBGegAAAAAAAAAAAAAAAAAABPCgAzwQABC6cJFJSimgAAAAAAAAAAAAAAAAAACwhZ/DLbuYBD+gAAG8CgAAAAAAAAAAAAAAAAAAADPqAgBBDqYpeEEWshSgAAAAAAAAAAAAAAAAAAABuRgAAABBLKNEATMAAAAAAAAAAAAAAAAAAAAABIAAAAAAAAASSEC6AAAAAAAAAAAAAAAAAAAAABTsAAAAAAAAB5+8aUAQAQAAAAAAAAAAAAAAAAABBcAAAAAAAAAiz8DAJ/wDHDb6EAJjAAAAAAAAAAAUWAAAAAAAAC8vxaTCQAO+YCViQrTAAAAAAAAAAUwAAAAAAAAUoidQAAAAAAyQAloGnAAAAAAAAAAU7AAAAAAAACo8W8gAAAAAACWGUQAAAAAAAAAAAAYgAAAAAAAeg+QAAAAAAAAWcaUAAAAAAAAAAAAAArIAAAAMA8QmAAIIAAAAA6e/AAAAAAAAAAAAAAM9iMmEiAAkcCA2kSAAAAAmuQAAAAAAAAAAAAbID3Qfqo0OU4YxmmuOAAEEe7kYAAAAAAAAAAAvvpAEARKsndPKYuxPqqQTS4W+O7AAAAAAAAAATIiEIAAAAwM4A/GdAU3FDBAAAAUy0AAAAAAAAAm6I4QAANEkIAAAIgAAEMQAIlJIAYMQAAAAAAAQ13wwYP6NiSPvIYqKAFz7RTLNRkKv9EAAAAAAAQovvDOYAXS3TDaR5kSww2A3ubZ1wWXAAAAAAAAASBIom0wAAAQvYczUg8SAAQnebJ+ywAAAAAAAAAAgx/AAAAAAQb3HbN5gUAAAAAAAAAAAAAAAAAAAAAAAAAAAAAE8KCDjfAQAAAAAAAAAAAAAAAAAAAAAAAAAAAAAeYAjjEEAoAAAAAAAAAAAAAAAAAAAAAAAAAAAAEBAAFzAVSIAAAAAAAAAAAAAAAAAAAAAAAAAAAAUXAAqBABTBAAAAAAAAAAAAAAAAAAAAAAAAAAAAUnN/H9HuZWAAAAAAAAAAAAAAAAAAAAAAAAAAAAAzyBnc/H0IAAAAAAAAAAAAAAAAAAAAAAAAAAAAAQS/p/bvAAIEAAAAAAAAAAAAAAAAAAAAAAAAAAAAAdpXCAAAgwAAAAAAAAAAAAAAAAAAAAAAAAAAAAAmj0TAAAAAAAAAAAAAAAAAAAAAAAAAAAAAAAMAsggBhAAAAAAAAAAAAAAAAAAAAAAAAAAAAIxkAQeoAAhLIMvPAAAAAAAAAAAAAAAAAAAAAAAp8zZaYAAoAFcPRlSgAAAAAAAAAAAAAAAAAAAAHkXKcFAAAAAAX4IA0oAAAAAAAAAAAAAAAAAAAAd8Ot9AJMkAEIY86clUAAAAAAAAAAAAAAAAAAAE2wOsR3DKAAbpk0Cz+/AAAAAAAAAAAAAAAAAAAY80TAhigm/fFRhiEvbgAAAAAAAAAAAAAAAAAAAAxOvKAAAAVIIoAAWzaAAAAAAAAAAAAAAAAAAAAAw9unAAAAAAAoAASzAAAAAAAAAAAAAAAAAAAAAAAAtoFMIAAAUAJAqYAAgAAAAAAAAAAAAAAAAAAAAAAz8BRCOEEqIGSAAAAAAAAAAAAAAAAAAAAAAAAAAAAJhAGJyDmaAAAAAAAAAAAAAAAAAAAAAAAAAAAAJjFzX/AMc0AAAAAAAAAAAAAAAAAAAAAAAAAAAAANNiyAAFjowAAAAAAAAAAAAAAAAAAAAAAAAAAAALHwAAEM5uAAAAAAAAAAAAAAAAAAAAAAAAAAAABFQBgAKjHdDqhzj2QAAAAAAAAAAAAAAAAAAAABFc/wD0ADD05rnaUMEoAAAAAAAAAAAAAAAAAwgABqYvMZACgACXqBf8eAAAAAAAAAAAAAAAAT/+X4VE3sAAQBCABBpLqIYAAAAAAAAAAAAAAAAJVbgZ43LoABQAAAADSVLlBQAAAAAAAAAAAAAABCM+scq+ugABQAAAAAAAACBQAAAAAAAAAAAAAAAAAAA0NP4AAAAAAAAAAAAABQAAAAAAAAAAAAAAAAAADGfYAAAAAAAAAAAAAAhQAAAAAAAAAAAAAAAAAADYuMAAAAAAAAAAAAAChAAAAAAAAAAAAAAAAAAABwCAAAAAAAAAAAAAACABzzzzzzzzzzz/xAAoEQACAQMEAgICAwEBAAAAAAAAAREQITEgQEFRMFBhcYGRYKHx0eH/2gAIAQMBAT8Q9w2MdwvRMmTQnLg9hSUIJNwehTlMirFDmvk4ZK0xARhn6A1oDAIKSugDGF8+gs9OpgZoR/g1LE7PQmh04hDfpCcCuDQJgIqgWl+lBlCDDRmVneZOGJWEbBM6WjghgHv3pOgnBAz7A5ACpcgaiXOewFtkk6ZlIiQQ0dDyFT6iCVgSDJHl1G3gjVYoKcwYgDQQJG5P6I8xtiBPxGQsnDSI+QZ62UHbcP8ARRAS3JsmhaElBUvMtLIK4e3bG9ZHlz8DXDJmoDXH6EAKFyActicuAicrO4B48dEZhZYeKI3xl6IqaDKYeweD0IxM64AiNilWsxOoEkzToE9sGIky4JnQOEQZyMms1kVfcafI/C6pUAb8T7iDrdC8KF5yPEQfjSF511RofjIS2DDQkTpFHRE0ggeqBeaYLZvU0yg5+EcqJrAjFM3RpAkknTFC8rZ0wRTQRSgS6qhnQhYxkD6SgshoRY44ymeIGBlAvGbHxjxCKNWUeStV5VFWGFpGZL9cFkvEogulOfcIZZNCg5CaXYEaIq2GRC40TwVjAXhQB0ASIoklQYMdQV6M2V1WSVwA8yjCxB9FQncXxFmYjcFeMiAXhnDELBDzDI5LSg7CBnF4OqMi0yMpIuAVKIIIJYEUWYpEVYhESPZ+NXsHJOAdQG5Wr2VPCDi0UBslzpwjSgVCNuHSpAjQTjGOYwvRHDuKDg1APyFCxBrdPREM3ofMgTT8f2MXwgy3egKDyCsqEpiZGCYaai8H/YScG/S78FWPEZWVG1kIXER/wJN8lVJYfgj0TlmPhWh9jg54SSJ7N/Yz5Ad/+KUQFvoQBCzz9QQIGJOAdrADGVOBKx2sepD9A1UcBAgJR/LAIxOfQhMI5SEJpCd4HwEqhX7wrigJ97ZsRLkpGYjwA1h1TbDDdBhKg9YQZLOpbcHUmImsiSvIrpVuwjKDoGjCbnBI9KcQJk+VF2WROAzgR8o0CCTDbuQyETk1D5wd46XJMBbdPANideOBhbkyzvAn4BOi1rdmi24DOOxgUCWPQM7QCYVBCN6+ACOA75B9T2HMlMT0E4jgF+ogRyECY7/QDbeC0CoUXo2jglyitSBE1Y33boeKLppwGSoEfxqB+O0ZYM3IkMnbvy0iG8ElM/VBFBx+qijctdykj/eJMZhx423SHYgpTXnjwHM/Gh0DJGcBbK54F1pJy4kgMgFBAQhjxDjyEOcZklixs9hiIyUfio4nTxAWfGWOqowlmo2S/QF8lGLR5VxBVjIxIGEL0dRBBw4gxykejb57rPTDI64F/Av/xAAkEQACAgEEAwEAAwEAAAAAAAAAARARMSAhQEEwUFFhYHGRwf/aAAgBAgEBPxD3DcDBP0RwYEdGnIvRA5BULJehDQytFOhBk/QE0BgTcXo4CSYg2wL0QK9CmZE5Gg7vQiDbBehC36E2wZCFWmJbDDjWXpWAUB+UC2LgJalh0JF6Ei8YF4WHYhumiChcdui+khUBPQE0ALx2wkK0v4EWEwz5YV4D7Cbg2zoCEuQrwpoC98heI1ACZL0qKGTDhuShQvQMXIhID6iFaihXQThmCd+Qi/IxLXUuGMfI+QAvM14z8YUF6MNiglwDF1eg2GhSLxnPmbC6A22HwucE8BoOEhG3AOqKDQmGoEtC+ANwwXwiHrZDBiYBs0jQbCf2jKhGJOk3Uj/gwsgl3h8fGIvGbhrMhzZcMvodYPKhgUgwR0SCxYsPIA8qBZY4ESAMBD8cgWMgIS6QPZ6Ixc1OZOVJC5a0GaDzIALhzheGggKpE+hR+IhzKVgoNtLEA/A2LHr+SUgMG90iqN4bNGTswcmCIyGPwvwLw/s4EAcF+iuRGQq7FCj/AHIgWUZqDikCOq7H4YoCjdP7QvvfpcJQOBwghaWPE0KaDYhMUjyxJqWy1PRcA4B4wbBFQuBLSPRxLy0UK1vYcdJ2OH8N59EiuVBGt+iTDYwgjYjYi9HSQ1iel62jost6ACihIoThAHILmubBbiMrRVSJ/ji52GyLZux+eoJbhLB6HRFQdZIVgJV6FjWGYXozyAJeiMu2SB7ngxkfUTkpzN8LGSfLQLAmzakYLwItgFhiHtcZuGeEBsC0gvQLdZO2cecuRW7wsKWtHciQlsCTYFx47WIghhbjsCyA6gQYrqIiXwBZvTwL2KC4yTHoshAwsjR2oQhHQHQoKlYxvJkPjMSCLxjtaX4Y+DaUCGEr41XKlKfxlki8l+RcABmsuWa1+Dw8zgKYYY/GUGkOxQJzGL++Dfb6UEkgAj5RBrkua3wgCir0Y2hFoXoPDclqNIvRmPCbnJ0ED+3lzsaQSbK/SIuqkB4FMHxViMdkba5BwZCIU9c0KNkRoYixEM9ZHDoAYvQ3BgHAkrOC4S8cT4IRhcL6DoAO0MQDpBCkyJeMq7ULCzqvgsPCzEO0BuSC4blEvIokfNBSkscKqTQUkKkf4WURDf8A5VcbGTLoWhL0iotkb76QNB98CX8Cf//EACwQAAIBAgQEBgMBAQEAAAAAAAABESExEEFRYSBQcZEwQIGhsfDB0fHhYHD/2gAIAQEAAT8Q/wDPLC+XSbjLZojWXbYG+izgmP8A4SXlyKAyKjAgbVqRXY3JUZWIb12IbGnisWmolg06+T/gw0I+1BTMh0bDA2cJIMUkS9AwlugsPiVHD9YKGcvcBKzJ+Ap5P/gYFXx8GGnoeYEmlrMIvQCCe6CB5KE16aCbKF9WNmkoT4yY2Nz323pH/ANnKx6Rjp+A6bgFX7ATsKYEkgntEhbvpEczUg5p24+4DwFSPb19S3P70rL6hniEV4zcEnr/AOM1eSI2dFBKoVLPqPCdqHFic+AJAJBquLzzOfUwzJsOCOVlVCkDUT41Jq0Qzqca6rc/AY2bjI1wJcCUuetYW0ASe22uwKm1AcecIguOMrcFuwG41aHAS6Se7EAvnxqTIXGzKQt5S1whrxs2VzmGfWChPrDOg8htg1OxefkqZJwlDtBlvE/hAIvSjLiVIoIe3NOJtojWSNwZCwACaaaN1z/fuJ8hBlwAFnGgPCmScJmZeyMrAK8iIWSIpDSSfPYIHDPO8/SNBpsACdCj+IWkDCk5i3CmIElGtuiMjfP7BN4gBSxiiRBM7ungM8MwHvCQQBX/AAWnnBAgQDgQdQEDnKYxmWsKHNrwd5SptyBp197c5hFCCeFSRysog8JkHAe2PhInSBjq+d1qPskLzienSCI+CPYA0AyAT10HRJZbflCfTTKdVwZDawBgqlRIDaJQcNibMrwqjK07ubwuQ5PJD1eqwKRFWc1kIy0aoP04GJnroqR875CACJN/g4HFCVCVRWCXiM1jbxFJQQFA/wA7NzdcrcqwMh1U7gjoWgHJrwsIDkLJvCWIsWTWdhdmhzCcvgPhpEwW83Gx1zXQ6COwknOI4DdCC22Ia70ITzGSCqmqyK5NAaZBVWQZSYUnYyrroFjAfDQ+kDi99CKwSlCCf2QgSjm6MuYcAfKeochB+BlDXciRRAUSaKGWMEwN9irwIN0CQYgG6b3IPndiPwZcrkkoU8GysiVUBKSAlkWI8yJMC4jBAArRAA2+pnAFR+rwf2IQvAiASFWAKJye+iFlkTlaclqGSG6/gXObDBwOdHDUfbUm28FrXZNMzYARITqiZLeQDC8tIi04QKsWUGuVEBFvq9zF0dIAayQZ4MGg9gcke10CdOl7lSs71dAxhkIDShRsIkgsFX04ucDkIHsJ0JeE/wAhppiVwKn8Ic39BDATdeCqsbgvpRAGT7hVG7UYYEUM6kaoGSiLbBmabhjYCEAAIwe9Qcp0TedYhYEQt3RiKH8IrALM6Fz4DBHhwx2LBBsxZcQDWYVHyC5HjDTQLuAg65KRgOkBgsD6AwCVFUrgJ6wxn2QIaItIZjo7Cs5Ry0imSF1Mu4AeVZVdUCb/AF2AARx5J8BLAoGmdGABZAjbtZUDKoU2KSpEaSEEX1oDrg3EOpkwnFkjCdb18DIimsArcosakIAfU207slGM+grj3GkDIESAhGGExI1UBJVxxgnTJgn7iRkkqItTI+GMPXhqx5BZwCFcJVxbYBKkQSOU6FuptG3FPsMGW/C3PVc6CRBf+RgHJOEBIRhaDpghPIwIPV5JXfBiBCUO9ohS3hgnhYdOBMj64ZIX6242q5SFFTlXBFtJL5kuVXgIIw+LQogQcSdwhZwEJCysAAOPaDhaJAUQktg37cBl08EXYrh3AgOSAhbNE7lCcL7O6uEis5ZXBbLlgTMNXTxN7qANSsFWSAYEuXE/c5NfyD0LmgF78JgIkKq7gfgBQ0AvnWd4FmPd6DuoXnKfVAVW+kAaIJ6UmoCqLIg5JYUMXVQIBo9xD9akHD+hGYI/O16s3LvtMwEjtw2IBLN8xAKMXTiWL8CBniUBM1vAMmUHmA1F46wAioSlETAdYTAWbLjBVPRxJuLVgI4SVnqNcuDoCunwfOQlQBEySnaM6qMSYvwlkGwITf2BAJejQqQEkBCgvQCS0oQ0BCPtUThYoMuCZtgCSAAL8kIzeblroL0zIInDcH+gbi3P58MJJ8R1e4P0MAiacyB2dXg+8UEmxS5cQTSJSEIGaQxOXWWETbYZ6ifoA6lRn12HkVd3h2BL2ApL8MAE5xgFntc+Er4xj5ASN/KnLillddmjKiROACo4Cs8kulLzKRrVSHYw9PgyFdBqK0+CItpYpKmzYKwUHQk5csfQ2zA/KUMPJ3LZ1QoAmG5QKK1YbyMZcJQ2+FQnLmYzoMO8oGYaSoQnU1WrG79kCkUgEABnN7DIbrxIiHWQ6cuDqwrBvhzI8kYUkNnTQDTWKTEZgkhfEW9TEFnr4RJAZ18Ef3SDJtTBIydpg9aNhM7OT2QUr1/ByANiQDvooIdiG67cR7MZJC+jwwj2NQX8x9IUeX4KAfP++TFQAHCuuIsdd+DH9GMwTpBhARp0hBqwCEF0t46oMIK0aj6lhTZ19TJwiESHW6YyzIGEAwCjSiIOWIMotgxbvgLGaQS1FhMhHIkxBiA9xC+u30NvM7PL/YheTWCKa0bBh7Q1TrjME56LIVuDMw6muaPgKwZMmdMK7WMDUwMS1wCKQcMk4NKq8kM6ZQ2KY1og9hgqIR9AJ0AFsqpeheJYOgkEyozXpTbDfGYkxFckgfloizUNqn2QvJrBFMqn1BThrUUg2h9hNjK2BU5YEgkdVGT8gQ8OE/GMkklggbmCE3gwtdxnbRWAIAFst49Ri+24tyXLU60Lki11BV5ZwErpROF8m0OjDbJDZ2hddbVf9B+4nYAl/wB6dCCLxAGFPApiEY6WEdtO0CedARc1klQY8OqNjKBI5mKoILzBjAGCSyCbEeSfDnmmQiMBJrIz+J5F8CejqBiOmQAutXHiPcql4hjIExl5Zn3QshdMwPKoWIwwhWiNVBUZZ2HiLygaAUOCCjLCiVyPB1ukT8wci8cORK3yoiSrEL7CVoRBSKy/QMgjyN+IuZEbPsZebVCRN5sTgfZQCxt7xGNHkagWB60ZKoykROglCoKA/Jr8LaSXY+OCuHrw0gy84IsAj5VICZJCgAiZSpm08rM8CDGCzEnSLIoz5SmZecltcWTdnhTUEAVI8k6JKguABkkSBmcnE8mNhVgiNlHAwrZCEpLDRUCKXnkTC2YEwMSmkmyeGJEECqAU+a0jgTWsWTZ6MbwEowXpgHox/wD0gCIggytOEkRNwTFF+iiwLUdCB+NJNskzDRChnSI8ZZeYFeVK11fPnbNJegMwWMRNndr4ZwpU1JkYzwfhsITuJCNJkJ4KcrRCK4BUwQSqK6QaWdhg5u/cBJ4KQZneiCSEa0wATJOoDgEDUE2LTqC3XiJuyopgC4oQvRozzAovKUL8Hni06bnA/nzjwzejAVrKDYgzebVnkkFlKIF1eYkEx4Fg7iY+QNJ+gowZwKxJsDbXWCAbVZqMsez0BcRsUpjyQ5L9eqEVWkmWHQSkDNbY70sJ9SIuqABtfDGjEJZHMDeGtSqaRfQQcj8sAHvYwRApw0wHmxBJMB97OGsAii9I2N80MhqCYI1t0GFCAu/R+qWDjDSTNUciTHD3APGYUp9nFRqzoACAOxJNLPlZug+/0RN+AN2Hm0Gywy7IGFoQmu/UOLiSgdtz6C3/AO9ID26omWIlDUlAI2XbAGYSwNZ9AEDwZA5rkLcgveMB9gQVGYQxBQFQxgC8zLG4CE3LGR6C24lGdBpiCwH9SASX0XIwhMwEw3fiQqE2qXXh4FyVB+AQEfKIzBVqtumIleihqDRoQ32teKbCH+oiJMDUz3UUAlT/AJ7oKxOrA324QCsEBTAbaf8AhEk3cCLToflCb3KD7B/oDut19KR+HqdkCEozRRC0RxQFEyRiFh3GFBnQDFSwmS6YP4iB8oqgBE1VAJCoIjzJD/8AUQGBZBiA0ugYChGoZMCrkEY40EYpJExNCsYB+pPgsFTCUkkFfYgklwzEhXQkMS2eCSJpsUNMVARjmJ3YESAWLLhRhFpPrfO4UGomBenYxYWsCNwJNuMCsTHBHPS8BL3AQnQQ0RIDNi5qIg09HDpryCuIKgVCTagAFyAAgVsYhfVQ23HTCvkpRQnPl1wGKoHbDKQCdAD6mMZsYSDjZnEe2IeJagu2NMQdpnoohuI0n2GFeowTWZM0g/DCm/4AiWCqhIv2zfUS/mG8JhyM6hhRtkA9BMOAHVm3AAk7LuU+q4BrgjYVkpdiM0ndhogNSKOAywF1QIA2+kI36QC/ArF8DpYUgT0xrN14Dt7iFR+BI/V02Z8sJAhAfB+OBD1UBkiHOUYIgrFQB4zoFrQkwBhNgQVQ3gRkQU8ANq0bZkHBKyApWCQyFnBgUBLAuPGNL37DCT8xwubgg8I+JQNWTgy6WtwjQmf5PCaRZC471/JsklkPoAtK/QNrAgewmvpHeXEWRnYH9wt4UZGBWOZeY9qill4MXSR4w1EzzLuwJTJj4QkX7m7AvJCNyIgJK4vcCbeCEnkhDhIQOt0gn7AyfiMaBqJijQcUQyDUo9gt44gPR5IRBUV4w6i6kUg1BNgUhIZXtMy8i4iSLMGi14ODmYfg4Vg8l6odQWeavBMiionGrBomR93DgahMl66LB3xxl+nEgpzzJWAXgsgjlB1eBYmpIY3xsM0+OBKypATW/BZE1hmZwSuAKF84sNkAC7CHqDASLtqeRQMRvqb3IFboHYYxXngp4oVp8MaO0JCnLGbtrJD5qbAKuhkYYvawjVbhAwQo3YR9/sBh18A65Z0wxnOPwf8ANwBxqANnEqgeHyw20cEXMMph0cpQBg3I5KKO7aI69GhOGRiVS6yggzLIWeEewQqxMxcEII82mqB6NpgPXpmeRH8CIariW5ZEMW8BGSUsZVYtQ63ZIhnVIwcIKnbK5AvyQtgUf3cAFdTBttZQnhKQ3pWHlBzPgU1E3yhN1nGpCs/QlbvBFRUR/HAZnkiAuNxKePilcICFvUwvYrUlDJ++pSBJtgljcwGzcpoe1VF0MhDXA1YFgMxjUeGhwAbaoaszMvITzaArC3XWQIr64AkvD4QGuZYNaHqJ0VF0NhgNshPsxhegRFWFsgCb91CwMjNQTgVJTdx6cxGV1WhMxgBLdpQPUkCongMM6BFF2FerTA0QIn1SywlFUgxg8ChgNswgiUdVKBKyjDEGbQVZhmJnbbjLhCOnWLT1CqkYCFllhQBBDVhF5QZkbsp09wi5cEbh9qSEPrYGNXyeRunYQ4z0QCcbwvMlnpgYTYjj1xkJJhhUCihQGuMpSAzhXU2yGc0DPZoJIYlyl8A63QKYBLoFGBcKRDgH4AgiN00egW0BGckXThQGkn2L4VLNvAzPQLdBzDIVhJ8RQI/qxg14j5QR8DSuXViQql0SyY9ZVfxAguYmi8GgDdccgqWjRCEqwiuVxexdhT5fPWASvSQBU3cRkzbREMqkgYVVUJOtEi8nHdOfawdGCJ1cYASk8AA7mFc4I/VrAUlgWmjv1BxZNCoLpgthwJLgQCUgitHgQBn8Ph0p9BSQVX1AkA8GmDuSby6YTIWRYuNfREi3vkkTh/GANntAxgVYQIaUO8Q+a9MIR8dCVxZgHCTHJ5ZBQrqEbMYKM4FI67rBHQdn3BH+QFhMQDR7gqItBQzOWfLAE12kYFyKpYRmemSMO5HuCMLLos0ZIiIRvxGglRwVmuRAfkR93LwkvDdiEAKN1YAgCF/8WIhGZ9wuBLA/lQbABikBOnM2Tmd/iA0mWSk+LxmIEfs71fhQtMScjht2wfGQnUkvE2SzQbBF80ApyjLpmqTlg1aaHk7qDBRgjAHkjCU/I4IKCEXihiS8E6hcgUEUL02RkpeUPZmai0DoC0KB5heUFEwCYDIksCHSK/AoIxXLSSfHZdHMLhEawJk4AVQmeqT/AN3CDjZKtKlawJb867Y8NSgCumCgLUIY4Bc9W9s9Fhp16XmDgTNxRJGkuaZFCkcFBJOoTheEvHhYC54xFayiGeLMCyMGNsCR1Mtv0cFqH6l/EBa/8ARRIO+L0G8XJXAXG5mNXwrXLqZt64U6uETomgFzufqGLW6w2g0hZkA9a2zE4mTbYN+w29MHRGQ5bwpnIhRr7Eic+pkLKlcxm8sxURhVvwsNwAUc1QoRiVPK9gvP8gjllUCZOZnPnhg1QEiS/GgexFtqLhe0/AHdAu4UAlXOxkqFBuvXACUdw4Th4JUCq1MrugV+wgrnfYLDKuOapCEA0LbCW4aeFhFrIbDmJMWy0Bm/jzCtzp2SgEHrtkEbbrCTP0JpKBmB0dDZIDRJ4BoWpf3nEzfIC8mVCNnQAFzqSLsAEbEDADpSYguxhBYFmEsEm/wkELD4QrvgqIaDmtAsq1A0l0wTCARyK8GStHQU64zJc6eYiTErN4IIS5wMbV/siqAtQJNsvWYwx+VjQllcGBG0KDhlSH5YDz/WFI4Gi/3IYSG8fVyIiCvLI52hMgbc+4hMOSd0NdNLoTENuPMaBzgTw6VAFv2BSB65XhgY6/GSISyHVZDcOSwwzYorQJICKbXC6xi54gW6nkh/KOAYNUuFgspsAV9uCEGXfcLDVgcB0gvzuGYFRAQmIANoODVJ+QTbT5ICmtxGL/gCWE9RURawIpApYoODt68HBkC6KQDMaYBBFP8AgxipyiYlhvpQz/RQ/wDiTtQB0AiQMCHX0iH3YgG5/wDDDJeMIwb2CxENPsDDo6Hd5kJC6YrdQH/wvXiAf7HQs0CJMQZyMFoqEwOiC997v/hBmzKkYcwCQ2Vl+BnwCEAHmDCAmGjX2aueMTVdNjfAVCHYEZ9BBSHhfsXXGZ95+Eg0/BnZbYjManXBYn9ZIEeYcFKQjEvaBkVc51qB3B7EAI9QDmNEgSRLlZUBazwompsj3YdHXpQFQeasEhmFY/nAY/8Aesgl3xARF2PiAB0CoAWxY2tEloM2UcDehtEWjmhdj7DpAkonmAe4QuqBsU5CroQSlcEXfLYZh0gUeCywaJHD1BKQDWAKcbJQRDbJK9QDqqH1BC4yfcARYX9kiEkRAzJVhocBAOaYokQOHdqhPD0NitrAPP8AQBnIwaj45ggTWCcu6Azyev6h9Z5OgAzYrG/AIEyo5BOI7sxbg+Ht1kmw60UwJmqD6ANbwacron+EVobD6EEyiAZ8ZRmGx0zIiA85UQwNT8gCnZR4Q/MKH5cMAbjAqkhFC5qWaZPK0v2fwAsmbAZJU1MACkcYEFiKSzD3CDtP0Dg12x6ghwJRv8AXhm84HygiMAsnoaD2ECD8OyOohPBWJtuhQaTmRny0WfkhTih1wL7tgIKEsp4gA7iDDujpwLe1AGvGG7Mjf3co2FA/pGi8aKXsf4QdXAAd82ABj31CEHCmO3PuBS6jWMEBvAnlRfdxHsj2OMABKy8MwAxxSLaUI6gFgUgvrGIUZKVRkW/pAywR4z4K5Bkh3BLwBM3IRE6vcoXAmcqLI1cQBKZ1ekh8qar3aCDhaC4Vk3gM0AUFi+ggsHbQWRhrTQDS3PAoUeDmLs6gBmMzLxab8gVHxkQmKjPpNoqgURwSqxNx1DLlc/AtJomTktAKREHFkULfoiiZFOtQchDMiCD0FinGrdOpoGmGc5Jh7Xt1M+LMt1HLADVgDJBJIEMpwghpUgJVZA9SjFySA16izYI71QnXcqBlsACgZ6OUIZcpbIjxAWTCu+JgwFCnHY1pCfubzAerbCwVlFB0wFPd2QyfKKbtCWOYGMAjQYTkTYA8asqqbiLhE2ViQkiocwMRM8liQiPXSDGVjRAxNdj6mwIIz3aAk9pwAeg0rGAXAAkdNQospj1gZZZ2D4egyHyiAOMAaywGvOANzOAyLYVmawJAditsBHADV1bL0ZCKhKiApBadZFglYNwvBn2AGDBq2YRVyBZA0LG/zoTNMRzETWdRgHLb8YilJV0awQqWSiTNSAw+bcCYAGzQmxCFYfKAMHQgc6BnpD0AJzH6Q1FwkIBN8JE2KgfqHyiAPJAssADlJyfUkL8sWBnsgOHoRAzyyElSFkHw4+AC+K0yDBT+0cCwXBVK6J92oMtIfKiThsJmYjAo3PNYgyF2YwFakoqNQIo6wdrYnIku4UlSwQAmkhBGSMtxuT2F2A0p9aAN5R9gDx4yBLbAh1gJS1UpAFSJFB8HIu4XfHhW8BpcEJqbH6B/AEc4L14B8PcMzQGaP3iC2ZZmtgu8AVKgg5c1gSF5vGdkHImZadRAIronKiliBGEzvQOgyo4ROg5ihsTnfVuIVyTDL2T4Q1jp3wIAyaZBE5ZQG7K2bKh+jwsRVT6CKA2yZREyKAfS+RC3K0HGQ+ip8GgMo9BgJOCUQwb85wa/sD55L4ZMoA+WEM7W12QXhKmZjMkiIS94DrilbK35YcA3Xx9jHBYZsB5uK7swDe0Q3qr5h3FyvfRq+Ab3lQDkfOcvRh6rqsBMRh1ExAblrqwRqqQM/K5ltBhx0LL8k9jmTa+oxkwuAPUdXNUKG+VVELOhRAFJUi5gT4bOZCHIVpdPZofCg5bORde/bmhKlhTniCCOxKl4r7hRYotTryDjcYZsAFTBc0bvdnkIKzkMF++Zg2ifoD3ISaG3KEOG1GJEDh0UJ6EEkink0wIKdHb8wl78CMBilxMmFkmhofPkLIRSxXvPXmrFpfm4JmUQMwBWfNVX78CDUvZTQ0te7wMegKWgROEAgC67Y8VMJPgnlACJEHJBTQEINpi1vEMqF1EafwiB+o/EhFYA8COWGmW4hXLM9obCXN4BtJgEMgYAuVAMQaHoo2BAf9fUEIMtkA3fgRIskwyAgxr1w2e89iCQiolJGZAEwwg3omkUcUTKkFThLCykQMBRoSfa250kjWz1QRbJO2HlT1DoCUSiSCjrgA2JkEXoMg0Eq+uO3mkP1G2GehORgkNKDHgbM4OwCBlIYxz2kmEIKEBzrImKAdwzPyPuIeQuCFC7CnQCRpIEAqbQ3KATCOCCtjwyFxNTBQqCiJhXcI+rxIMYB1Kl4sC52IshKaAmHqclR8Cw3o8ygBBLA0GIDUkwdW7ZZQBj/wBVA7lUCJ3JY0wJLXSIVZsQKzigVao9ZRzw3KH144gSABRwXNyefgYsEXBwZ4NFpIJ0SBZU54V3P3YMxogETIGdAY+XS2PAKj8HshnowBpMXsS7vMC7pTwZHPGXMS4z7FwRsM4AEYdYoAp3mTiMkmR0hWICCMFBNwIkLCLfLBKeXYTOBKACGdmev4HO6LFQUOsn+IyQlz1JVCXeJ2bjQKOzVAzYIctxd5zssFqWsiwhbC5Jp+kKkATAu4BVFI9QQLk1kHwEQXqpD6NIALlwZmmmYOTGYL6IpGlBV8uFBQcEQGFYiNVKwLZ78LM+gPNPCTWBAZEDop/qgNNS5AojUGJ5UnhGBzFRArIEkPhUvn4ZVTbk4LTnVovYovsjeAOU2bt+XZytSsxcL05DP9RFB0O6eqJbXBx2GcYNF5DThBLJe+obCizNJghD2qwRDeNqCtXqXM7LgmYvahG9Rhb04SReGjQ9zdDJjxIeBAmMNEk4UOshl3ogEdfSIQTeH2CI/LUDsRwFoexLRA2QpRTvjEjUPqUkzIQT1Qg1HNLdHDVAIcgeguAYgLHejjD/AEhdxS3JUukQh0lXULDAifdQtAQdWMjr0E6rSGCzxVlhQ3BqkyVtqIWZ3QLyi5VWRy0rARCF9no1Q/PEELd4yTVRwOVpb7IB7EbpElmUFyuOSSJJ6eSCkn3EdhB+vATgz1kypEUygPwVP8YCMj9ZCIQWWiTBIH0aM4Xo48J2UBPvQKcdayZxvUIDerJcpRg2OTvEboQMAPSNBBneGI2YSI2PEA2SIMEjth6C+Tj3XfHxUAw24BNX6ctgqlMLoE/4plg9xkiFYddCqHMSV37BdMAaNh4o2T78x+EAVZJD7gy5E4IdQw2BlcMAmSPrw4kCyvfQIo3gkSamv0bg7P8AxQESseyCIOuLhrFSZ5gNqRMO8Mmz6cEQT1QCWCXC+MXboP65uLE7RbmjNXwoshu06rbsU0oD8AEAHHd3qI8KIsBa/vnUuRL5ZbyDIPaBgErWQJ6FJg6SMgdxiWa5hG5YWYUkJK6xAr3mVjDIYW9RmCmZ1mgj5RJVCUqkIq13cVFLvayX0UuojLxzXgUwRcAIFORVjIlJgRX6QGW4n4RMaWEZ+euZkp1YGdyIybMXK/IEMZxgighgbfgYWuW1k5gkA18sArpBmiEAkSO7dkUEtJFtPgy6CMR7AiIgp6EysYbZDXTCz8TiXhzz8sJCipeegYdIhvcEiFKUDAcRZgwl2mmsL2zkciBKDAOCLVQm0F6ZgVhlBoVkRxTajVnVD7AdzTDR22ozwCqiNTsQaRAGsD7QCgMMuJeJZlZIEEseqP0JuOG31EugUt5IRXUSggJ5vsQBx7ol0BSg14BFyB+CfvUC7JMZahxbnmUkGYxRZiQ/YxnHEc+hm9AowkIbCELNECutCRLB3E5ulMiksFQArmwbHHl4qvDRzAeIFCHpr4QUezgHHW4XZ+IIuFjGwSKXIZLBcgepMxlutxrgjbywACMQzQKszcqSg0Zgp2Y0FREnWWAPzM/QLGriyACbCU3rhh1W7IeWo6rkHzlltKgR5S+RxryAwCpEFaQB2gpUyvawWFiF4SYrkNCu8gmXutwCUTJuiROQzBWa4iRUhHuHaIt+pwEviSmB8+GEhqaapdJAzAxv1KGXGvLLk9q1kiDoC22pCPj6WdSkYC2pSdaMVbwQQTYOsvPFyd0nW4UOcEoagt5iWReFYgvEggRPPK5PelQCwdJITsEuZAfRCr7CcGnvhC/0GefgF59cnfBjgr0gq0oEQZVEojUraAhUldNhTsBDtkBKTB5x4rk6tTk1cKD+RgBjOIConskBnfLqSBBCyO5bzrxXKIE0AD/F3UCXMciqsco9Rfnh8rz5CfDJJJJJJJJJJJJJJJJJJJJJ/9k=;" vertex="1" parent="1">
          <mxGeometry x="73.65" y="450" width="56.35" height="100" as="geometry" />
        </mxCell>
        <mxCell id="Jc0x52swUBUhcR1XFmG_-15" value="Customer mints chicken NFT with email address" style="text;html=1;strokeColor=none;fillColor=none;align=center;verticalAlign=middle;whiteSpace=wrap;rounded=0;" vertex="1" parent="1">
          <mxGeometry x="100" y="640" width="100" height="30" as="geometry" />
        </mxCell>
        <mxCell id="Jc0x52swUBUhcR1XFmG_-16" value="Shows to BCH and get 10% discount" style="text;html=1;strokeColor=none;fillColor=none;align=center;verticalAlign=middle;whiteSpace=wrap;rounded=0;" vertex="1" parent="1">
          <mxGeometry x="100" y="340" width="130" height="40" as="geometry" />
        </mxCell>
      </root>
    </mxGraphModel>
  </diagram>
</mxfile>
